<svg xmlns="http://www.w3.org/2000/svg" xmlns:xlink="http://www.w3.org/1999/xlink" width="500" zoomAndPan="magnify" viewBox="0 0 375 374.999991" height="500" preserveAspectRatio="xMidYMid meet" version="1.0"><defs><g/><clipPath id="645d078e1c"><path d="M 43.5 140 L 331.5 140 L 331.5 214 L 43.5 214 Z M 43.5 140 " clip-rule="nonzero"/></clipPath><clipPath id="3aa3d7fb56"><path d="M 267 82.25 L 317 82.25 L 317 132 L 267 132 Z M 267 82.25 " clip-rule="nonzero"/></clipPath></defs><path fill="#ffffff" d="M 84.726562 168.953125 C 84.636719 170.960938 84.582031 172.984375 84.609375 175.007812 C 84.175781 175.832031 83.773438 176.671875 83.410156 177.511719 C 83.726562 174.621094 84.175781 171.757812 84.726562 168.953125 Z M 125.984375 105.5625 C 124.148438 107.613281 122.488281 109.898438 120.972656 112.386719 C 117.523438 114.121094 114.34375 116 111.457031 118.027344 C 115.890625 113.441406 120.757812 109.25 125.984375 105.5625 Z M 258.023438 118.011719 C 255.136719 115.988281 251.945312 114.09375 248.492188 112.371094 C 246.976562 109.855469 245.285156 107.558594 243.4375 105.488281 C 248.175781 108.828125 252.667969 112.589844 256.839844 116.769531 C 257.242188 117.15625 257.632812 117.59375 258.023438 118.011719 Z M 284.871094 174.996094 C 284.914062 172.941406 284.855469 170.917969 284.753906 168.894531 C 285.304688 171.699219 285.722656 174.519531 286.039062 177.382812 C 285.695312 176.585938 285.304688 175.777344 284.871094 174.996094 Z M 284.464844 210.304688 C 284.25 206.445312 283.167969 202.683594 281.261719 199.027344 C 283.167969 192.304688 284.335938 185.464844 284.726562 178.625 C 285.75 181.082031 286.371094 183.585938 286.648438 186.113281 C 286.660156 187.054688 286.703125 188.007812 286.703125 188.960938 C 286.703125 196.222656 285.9375 203.363281 284.464844 210.304688 Z M 254.542969 263.339844 C 254.789062 262.980469 255.003906 262.605469 255.222656 262.226562 C 256.03125 261.621094 256.8125 260.984375 257.605469 260.347656 C 257.34375 260.609375 257.097656 260.898438 256.839844 261.15625 C 256.089844 261.910156 255.308594 262.617188 254.542969 263.339844 Z M 111.816406 260.289062 C 112.613281 260.941406 113.40625 261.59375 114.214844 262.199219 C 114.429688 262.574219 114.664062 262.949219 114.90625 263.328125 C 114.140625 262.605469 113.375 261.894531 112.625 261.15625 C 112.351562 260.867188 112.089844 260.578125 111.816406 260.289062 Z M 94.847656 164.902344 C 94.933594 171.554688 95.773438 178.378906 97.417969 185.347656 C 97.550781 185.867188 97.679688 186.390625 97.808594 186.910156 C 96.882812 187.71875 96.003906 188.542969 95.167969 189.382812 C 92.625 191.925781 90.53125 194.558594 88.914062 197.234375 C 87.078125 190.367188 86.039062 183.394531 85.808594 176.414062 C 87.871094 172.363281 90.921875 168.503906 94.847656 164.902344 Z M 89.214844 153.21875 C 91.195312 149.402344 94.070312 145.789062 97.722656 142.433594 C 95.886719 148.910156 94.921875 155.691406 94.832031 162.675781 C 93.835938 163.542969 92.882812 164.425781 91.988281 165.308594 C 89.476562 167.835938 87.410156 170.410156 85.75 173.058594 C 85.765625 169.066406 86.054688 165.089844 86.601562 161.144531 C 87.367188 158.453125 88.25 155.808594 89.214844 153.21875 Z M 104.769531 125.6875 C 104.078125 126.890625 103.414062 128.117188 102.792969 129.363281 C 102.011719 130.042969 101.261719 130.707031 100.554688 131.414062 C 101.894531 129.449219 103.296875 127.523438 104.769531 125.6875 Z M 117.160156 119.949219 C 112.582031 122.277344 108.511719 124.820312 105 127.554688 C 106.113281 125.515625 107.339844 123.519531 108.65625 121.566406 C 111.917969 118.894531 115.703125 116.421875 119.90625 114.207031 C 118.90625 116.03125 117.984375 117.9375 117.160156 119.949219 Z M 139.011719 106.574219 C 138.144531 108.382812 137.363281 110.320312 136.671875 112.359375 C 133.753906 113.210938 130.921875 114.152344 128.179688 115.164062 C 124.828125 116.421875 121.695312 117.75 118.75 119.183594 C 119.660156 117.085938 120.667969 115.105469 121.78125 113.238281 C 126.964844 110.664062 132.757812 108.425781 139.011719 106.574219 Z M 131.082031 102.164062 C 132.570312 101.238281 134.070312 100.355469 135.601562 99.519531 C 139.023438 97.941406 142.738281 96.539062 146.664062 95.339844 C 143.949219 98.113281 141.625 101.398438 139.675781 105.199219 C 133.636719 106.949219 127.992188 109.046875 122.894531 111.445312 C 125.246094 107.859375 127.992188 104.753906 131.082031 102.164062 Z M 148.441406 93.632812 C 148.179688 93.691406 147.921875 93.761719 147.660156 93.851562 C 147.980469 93.71875 148.296875 93.605469 148.613281 93.488281 C 148.554688 93.53125 148.5 93.574219 148.441406 93.632812 Z M 165.902344 90.046875 C 160.671875 90.726562 155.632812 91.710938 150.851562 92.96875 C 150.882812 92.867188 150.894531 92.75 150.882812 92.648438 C 156.167969 90.785156 161.640625 89.339844 167.289062 88.371094 C 166.796875 88.875 166.335938 89.441406 165.902344 90.046875 Z M 218.628906 92.9375 C 213.847656 91.679688 208.808594 90.699219 203.566406 90.019531 C 203.144531 89.425781 202.699219 88.875 202.222656 88.371094 C 207.808594 89.339844 213.296875 90.742188 218.613281 92.605469 C 218.582031 92.722656 218.582031 92.824219 218.628906 92.9375 Z M 220.980469 93.574219 C 220.9375 93.53125 220.878906 93.488281 220.824219 93.429688 C 221.140625 93.558594 221.472656 93.675781 221.789062 93.804688 C 221.53125 93.734375 221.253906 93.648438 220.980469 93.574219 Z M 250.730469 119.152344 C 247.785156 117.738281 244.652344 116.390625 241.316406 115.148438 C 238.554688 114.136719 235.726562 113.195312 232.824219 112.34375 C 232.128906 110.304688 231.335938 108.382812 230.46875 106.546875 C 236.722656 108.410156 242.511719 110.636719 247.683594 113.226562 C 248.808594 115.089844 249.820312 117.070312 250.730469 119.152344 Z M 260.796875 121.523438 C 262.125 123.476562 263.351562 125.472656 264.464844 127.511719 C 260.957031 124.792969 256.898438 122.246094 252.320312 119.933594 C 251.496094 117.925781 250.570312 116 249.5625 114.179688 C 253.761719 116.40625 257.53125 118.851562 260.796875 121.523438 Z M 266.660156 129.316406 C 266.039062 128.046875 265.359375 126.800781 264.652344 125.558594 C 266.167969 127.480469 267.628906 129.433594 269 131.429688 C 268.25 130.722656 267.46875 129.996094 266.660156 129.316406 Z M 277.519531 165.308594 C 276.609375 164.410156 275.65625 163.542969 274.660156 162.660156 C 274.558594 155.605469 273.578125 148.765625 271.714844 142.230469 C 275.367188 145.613281 278.242188 149.257812 280.25 153.117188 C 281.246094 155.777344 282.125 158.484375 282.890625 161.230469 C 283.441406 165.148438 283.714844 169.082031 283.730469 173.042969 C 282.082031 170.398438 280.019531 167.824219 277.519531 165.308594 Z M 273.996094 189.382812 C 273.246094 188.617188 272.4375 187.878906 271.613281 187.15625 C 271.773438 186.546875 271.929688 185.941406 272.0625 185.347656 C 273.722656 178.378906 274.558594 171.554688 274.632812 164.917969 C 275.210938 165.4375 275.773438 165.972656 276.308594 166.523438 C 279.5 169.703125 281.953125 173.015625 283.6875 176.398438 C 283.457031 183.496094 282.371094 190.609375 280.464844 197.609375 C 278.820312 194.789062 276.652344 192.042969 273.996094 189.382812 Z M 276.261719 209.84375 C 274.703125 207.210938 272.667969 204.664062 270.199219 202.179688 C 269.359375 201.355469 268.492188 200.558594 267.585938 199.75 C 269.027344 195.976562 270.285156 192.1875 271.308594 188.382812 C 271.945312 188.976562 272.582031 189.570312 273.203125 190.175781 C 276.105469 193.082031 278.386719 196.089844 280.046875 199.15625 C 279.007812 202.757812 277.738281 206.328125 276.261719 209.84375 Z M 283.296875 213.804688 C 282.328125 216.40625 281.273438 218.894531 280.132812 221.292969 C 279.800781 217.808594 278.746094 214.398438 276.957031 211.070312 C 278.445312 207.628906 279.730469 204.160156 280.796875 200.632812 C 282.515625 204.261719 283.382812 207.992188 283.382812 211.792969 C 283.382812 212.460938 283.355469 213.140625 283.296875 213.804688 Z M 280.234375 223.652344 C 280.753906 222.636719 281.246094 221.597656 281.738281 220.542969 C 281.246094 222.03125 280.742188 223.492188 280.191406 224.964844 C 280.21875 224.519531 280.234375 224.097656 280.234375 223.652344 Z M 235.8125 271.597656 C 236.507812 269.949219 236.867188 268.273438 236.925781 266.535156 C 243.554688 263.082031 250.441406 258.640625 256.984375 253.046875 C 256.796875 255.894531 255.902344 258.714844 254.371094 261.445312 C 248.621094 265.683594 242.269531 269.039062 235.8125 271.597656 Z M 225.921875 282.382812 C 225.832031 282.414062 225.746094 282.457031 225.660156 282.472656 C 227.148438 281.515625 228.519531 280.535156 229.746094 279.476562 C 231.839844 278.855469 233.921875 278.105469 235.941406 277.28125 C 232.691406 279.160156 229.355469 280.867188 225.921875 282.382812 Z M 139.617188 279.433594 C 140.800781 280.476562 142.128906 281.457031 143.574219 282.382812 C 143.546875 282.382812 143.515625 282.371094 143.488281 282.355469 C 140.078125 280.851562 136.730469 279.144531 133.492188 277.25 C 135.488281 278.074219 137.539062 278.8125 139.617188 279.433594 Z M 112.496094 253.046875 C 119.039062 258.628906 125.925781 263.066406 132.554688 266.523438 C 132.597656 268.242188 132.960938 269.933594 133.636719 271.582031 C 127.199219 269.007812 120.84375 265.667969 115.09375 261.433594 C 113.566406 258.699219 112.667969 255.878906 112.496094 253.046875 Z M 89.230469 223.605469 C 89.230469 224.054688 89.257812 224.488281 89.273438 224.953125 C 88.710938 223.449219 88.191406 221.945312 87.699219 220.425781 C 88.191406 221.511719 88.695312 222.582031 89.230469 223.605469 Z M 101.894531 199.734375 C 100.984375 200.542969 100.105469 201.339844 99.28125 202.179688 C 96.796875 204.652344 94.789062 207.210938 93.230469 209.8125 C 91.699219 206.183594 90.398438 202.496094 89.332031 198.765625 C 91.425781 195.019531 94.402344 191.464844 98.125 188.136719 C 99.152344 192.015625 100.421875 195.890625 101.894531 199.734375 Z M 114.199219 177.496094 C 115.007812 181.558594 115.992188 185.652344 117.144531 189.730469 C 111.703125 192.460938 106.878906 195.554688 102.820312 198.953125 C 101.347656 195.078125 100.089844 191.191406 99.078125 187.316406 C 103.28125 183.714844 108.367188 180.433594 114.199219 177.496094 Z M 113.59375 131.644531 C 112.410156 137.113281 111.703125 143.011719 111.570312 149.328125 C 111.542969 150.125 111.558594 150.921875 111.558594 151.714844 C 105.652344 154.664062 100.410156 158.003906 96.003906 161.679688 C 96.191406 154.507812 97.304688 147.582031 99.355469 140.972656 C 103.355469 137.574219 108.148438 134.453125 113.59375 131.644531 Z M 113.925781 130.113281 C 108.625 132.804688 103.945312 135.765625 99.988281 138.949219 C 101.042969 135.898438 102.285156 132.917969 103.730469 130.011719 C 107.371094 126.890625 111.703125 124.027344 116.597656 121.453125 C 115.558594 124.183594 114.648438 127.078125 113.925781 130.113281 Z M 134.085938 122.277344 C 129.941406 123.492188 125.957031 124.863281 122.199219 126.367188 C 119.789062 127.351562 117.476562 128.378906 115.269531 129.449219 C 116.046875 126.367188 116.988281 123.417969 118.097656 120.671875 C 123.53125 117.9375 129.636719 115.566406 136.238281 113.601562 C 135.386719 116.304688 134.648438 119.195312 134.085938 122.277344 Z M 159.429688 108.640625 C 158.984375 111.359375 158.609375 114.207031 158.332031 117.144531 C 150.289062 118.257812 142.550781 119.847656 135.300781 121.914062 C 135.90625 118.804688 136.65625 115.914062 137.566406 113.210938 C 144.382812 111.246094 151.71875 109.710938 159.429688 108.640625 Z M 160.816406 101.933594 C 160.371094 103.695312 159.980469 105.546875 159.617188 107.5 C 152.09375 108.527344 144.832031 110.015625 138 111.953125 C 138.734375 109.898438 139.546875 107.960938 140.453125 106.140625 C 146.824219 104.332031 153.667969 102.914062 160.816406 101.933594 Z M 184.167969 99.199219 C 176.675781 99.214844 169.324219 99.691406 162.289062 100.585938 C 163.402344 96.757812 164.804688 93.53125 166.480469 91.117188 C 172.210938 90.363281 178.132812 89.976562 184.167969 89.945312 Z M 207.203125 100.585938 C 200.15625 99.691406 192.804688 99.214844 185.296875 99.199219 L 185.296875 89.945312 C 191.363281 89.960938 197.28125 90.351562 202.972656 91.074219 C 204.675781 93.503906 206.0625 96.726562 207.203125 100.585938 Z M 209.859375 107.484375 C 209.515625 105.546875 209.125 103.683594 208.664062 101.917969 C 215.824219 102.902344 222.65625 104.316406 229.023438 106.125 C 229.933594 107.949219 230.757812 109.898438 231.496094 111.953125 C 224.648438 110 217.398438 108.511719 209.859375 107.484375 Z M 234.179688 121.871094 C 226.988281 119.832031 219.261719 118.226562 211.160156 117.113281 C 210.871094 114.179688 210.511719 111.34375 210.050781 108.640625 C 217.773438 109.695312 225.113281 111.246094 231.929688 113.195312 C 232.824219 115.898438 233.574219 118.777344 234.179688 121.871094 Z M 254.210938 129.375 C 248.535156 126.628906 242.226562 124.230469 235.394531 122.234375 C 234.816406 119.152344 234.109375 116.289062 233.242188 113.585938 C 239.855469 115.566406 245.949219 117.925781 251.378906 120.644531 C 252.492188 123.390625 253.429688 126.3125 254.210938 129.375 Z M 255.554688 130.027344 C 254.816406 127.003906 253.921875 124.140625 252.882812 121.4375 C 257.777344 123.996094 262.097656 126.859375 265.734375 129.984375 C 267.164062 132.847656 268.421875 135.808594 269.460938 138.832031 C 265.476562 135.636719 260.796875 132.671875 255.554688 130.027344 Z M 257.9375 151.703125 C 257.9375 150.921875 257.9375 150.125 257.921875 149.328125 C 257.777344 142.9375 257.070312 136.953125 255.859375 131.429688 C 261.289062 134.21875 266.082031 137.359375 270.066406 140.769531 C 272.148438 147.449219 273.304688 154.433594 273.492188 161.664062 C 269.070312 158.003906 263.84375 154.664062 257.9375 151.703125 Z M 252.332031 189.730469 C 253.488281 185.695312 254.457031 181.660156 255.25 177.65625 C 261.101562 180.621094 266.167969 183.929688 270.34375 187.546875 C 269.347656 191.347656 268.117188 195.179688 266.675781 198.96875 C 262.601562 195.554688 257.777344 192.476562 252.332031 189.730469 Z M 261.765625 210.1875 C 257.980469 207.023438 253.503906 204.144531 248.449219 201.601562 C 249.777344 198.027344 250.960938 194.441406 252.015625 190.828125 C 257.445312 193.574219 262.226562 196.667969 266.242188 200.082031 C 264.914062 203.480469 263.425781 206.847656 261.765625 210.1875 Z M 270.933594 220.671875 C 269.445312 218.128906 267.496094 215.640625 265.085938 213.210938 C 264.320312 212.445312 263.484375 211.691406 262.644531 210.957031 C 264.320312 207.628906 265.808594 204.261719 267.152344 200.878906 C 267.917969 201.570312 268.683594 202.265625 269.390625 202.972656 C 272.03125 205.632812 274.125 208.351562 275.699219 211.15625 C 274.285156 214.367188 272.710938 217.550781 270.933594 220.671875 Z M 212.144531 274.402344 C 212.054688 273.550781 211.824219 272.695312 211.449219 271.859375 C 219.652344 268.691406 227.320312 264.832031 234.382812 260.320312 C 235.277344 262.113281 235.742188 263.964844 235.785156 265.855469 C 226.917969 270.410156 218.539062 273.160156 212.144531 274.402344 Z M 211.722656 277.773438 C 211.984375 277.0625 212.128906 276.3125 212.171875 275.558594 C 218.539062 274.316406 226.875 271.625 235.753906 267.128906 C 235.625 268.835938 235.148438 270.527344 234.339844 272.160156 C 226.554688 275.097656 218.726562 276.933594 211.722656 277.773438 Z M 205.976562 284.191406 C 206.972656 283.570312 207.867188 282.890625 208.648438 282.183594 C 214.484375 282.570312 220.808594 281.863281 227.046875 280.246094 C 225.34375 281.488281 223.40625 282.660156 221.3125 283.714844 C 216.488281 284.886719 212.605469 284.914062 205.976562 284.191406 Z M 171.011719 287.417969 C 175.101562 288.601562 179.808594 289.28125 184.734375 289.28125 C 187.171875 289.28125 189.527344 289.121094 191.765625 288.832031 C 192.515625 289.570312 193.296875 290.179688 194.089844 290.625 C 191 290.902344 187.882812 291.058594 184.734375 291.058594 C 177.828125 291.058594 171.027344 290.367188 164.398438 289.035156 C 166.710938 288.832031 168.847656 288.296875 171.011719 287.417969 Z M 160.875 282.183594 C 161.65625 282.890625 162.550781 283.570312 163.546875 284.191406 C 156.875 284.914062 152.988281 284.886719 148.136719 283.699219 C 146.042969 282.644531 144.121094 281.488281 142.417969 280.230469 C 148.671875 281.863281 155.027344 282.570312 160.875 282.183594 Z M 157.308594 275.558594 C 157.351562 276.296875 157.496094 277.046875 157.757812 277.773438 C 150.75 276.917969 142.910156 275.097656 135.125 272.148438 C 134.316406 270.511719 133.839844 268.835938 133.726562 267.128906 C 142.59375 271.613281 150.925781 274.316406 157.308594 275.558594 Z M 135.082031 260.289062 C 142.160156 264.832031 149.828125 268.691406 158.03125 271.84375 C 157.640625 272.683594 157.410156 273.535156 157.324219 274.402344 C 150.925781 273.144531 142.5625 270.398438 133.683594 265.84375 C 133.726562 263.933594 134.214844 262.082031 135.082031 260.289062 Z M 97.910156 221.800781 C 96.25 224.921875 95.28125 228.132812 95.023438 231.429688 C 93.359375 228.855469 91.800781 226.195312 90.371094 223.363281 C 90.414062 219.601562 91.351562 215.945312 93.101562 212.429688 C 94.53125 215.609375 96.132812 218.734375 97.910156 221.800781 Z M 106.847656 210.941406 C 105.984375 211.691406 105.160156 212.445312 104.378906 213.210938 C 101.984375 215.625 100.03125 218.113281 98.546875 220.65625 C 96.785156 217.535156 95.195312 214.367188 93.792969 211.15625 C 95.816406 207.527344 98.703125 204.085938 102.328125 200.878906 C 103.671875 204.246094 105.175781 207.617188 106.847656 210.941406 Z M 121.046875 201.585938 C 115.976562 204.128906 111.5 207.007812 107.714844 210.175781 C 106.054688 206.847656 104.566406 203.464844 103.238281 200.082031 C 107.210938 196.726562 112.003906 193.632812 117.476562 190.871094 C 118.53125 194.457031 119.714844 198.042969 121.046875 201.585938 Z M 137.132812 183.28125 C 137.914062 186.9375 138.792969 190.640625 139.777344 194.355469 C 133.335938 196.222656 127.398438 198.476562 122.054688 201.078125 C 120.742188 197.523438 119.558594 193.953125 118.503906 190.367188 C 124.078125 187.648438 130.347656 185.261719 137.132812 183.28125 Z M 134.589844 169.601562 C 135.226562 173.707031 135.976562 177.886719 136.875 182.125 C 130.101562 184.089844 123.816406 186.460938 118.1875 189.222656 C 117.03125 185.132812 116.046875 181.039062 115.238281 176.976562 C 121.046875 174.140625 127.542969 171.65625 134.589844 169.601562 Z M 132.410156 145.46875 C 132.554688 152.699219 133.234375 160.40625 134.417969 168.429688 C 127.386719 170.46875 120.871094 172.925781 115.007812 175.789062 C 113.535156 168.039062 112.757812 160.40625 112.667969 153.074219 C 118.574219 150.152344 125.203125 147.609375 132.410156 145.46875 Z M 132.800781 131.804688 C 132.46875 135.578125 132.339844 139.554688 132.367188 143.675781 C 125.261719 145.757812 118.648438 148.273438 112.683594 151.152344 C 112.683594 150.558594 112.683594 149.953125 112.699219 149.359375 C 112.84375 142.78125 113.59375 136.621094 114.894531 130.980469 C 120.597656 128.160156 126.953125 125.675781 133.855469 123.59375 C 133.40625 126.210938 133.046875 128.929688 132.800781 131.804688 Z M 157.480469 138.414062 C 149.046875 139.554688 141.003906 141.21875 133.492188 143.34375 C 133.464844 139.425781 133.609375 135.59375 133.925781 131.890625 C 134.1875 128.871094 134.578125 125.976562 135.054688 123.261719 C 142.289062 121.132812 150.074219 119.472656 158.21875 118.328125 C 157.65625 124.808594 157.4375 131.691406 157.480469 138.414062 Z M 184.167969 116.476562 L 184.167969 136.621094 C 175.332031 136.648438 166.695312 137.226562 158.40625 138.296875 C 158.390625 131.125 158.652344 124.34375 159.214844 118.183594 C 167.242188 117.113281 175.605469 116.523438 184.167969 116.476562 Z M 184.167969 106.949219 L 184.167969 115.351562 C 175.75 115.378906 167.402344 115.945312 159.328125 117 C 159.632812 114.019531 160.007812 111.15625 160.484375 108.511719 C 168.066406 107.515625 176.011719 106.980469 184.167969 106.949219 Z M 184.167969 105.808594 C 176.140625 105.835938 168.285156 106.355469 160.6875 107.339844 C 161.0625 105.386719 161.480469 103.523438 161.945312 101.789062 C 169.09375 100.847656 176.542969 100.355469 184.167969 100.328125 Z M 185.296875 105.808594 L 185.296875 100.328125 C 192.9375 100.355469 200.386719 100.847656 207.535156 101.773438 C 208.011719 103.507812 208.417969 105.375 208.792969 107.339844 C 201.195312 106.355469 193.324219 105.835938 185.296875 105.808594 Z M 185.296875 115.351562 L 185.296875 106.949219 C 193.46875 106.964844 201.414062 107.5 209.007812 108.496094 C 209.472656 111.15625 209.847656 113.992188 210.148438 116.96875 C 202.191406 115.929688 193.84375 115.378906 185.296875 115.351562 Z M 211.074219 138.296875 C 202.800781 137.214844 194.148438 136.632812 185.296875 136.621094 L 185.296875 116.476562 C 193.902344 116.507812 202.265625 117.085938 210.265625 118.125 C 210.84375 124.300781 211.101562 131.109375 211.074219 138.296875 Z M 235.566406 131.890625 C 235.886719 135.59375 236.015625 139.425781 235.984375 143.34375 C 228.492188 141.21875 220.445312 139.554688 212.011719 138.414062 C 212.042969 131.660156 211.839844 124.761719 211.261719 118.257812 C 219.4375 119.386719 227.191406 121.019531 234.398438 123.085938 C 234.902344 125.878906 235.292969 128.8125 235.566406 131.890625 Z M 237.113281 143.675781 C 237.15625 139.554688 237.011719 135.578125 236.695312 131.804688 C 236.433594 128.882812 236.074219 126.109375 235.609375 123.433594 C 242.511719 125.488281 248.867188 127.945312 254.558594 130.765625 C 255.871094 136.476562 256.636719 142.691406 256.796875 149.359375 C 256.8125 149.953125 256.796875 150.558594 256.8125 151.152344 C 250.847656 148.261719 244.230469 145.757812 237.113281 143.675781 Z M 235.046875 168.53125 C 236.261719 160.449219 236.9375 152.699219 237.082031 145.410156 C 244.246094 147.535156 250.875 150.097656 256.8125 153.046875 C 256.738281 160.421875 255.929688 168.128906 254.457031 175.933594 C 248.609375 173.058594 242.082031 170.585938 235.046875 168.53125 Z M 232.605469 182.136719 C 233.503906 177.929688 234.238281 173.796875 234.875 169.730469 C 235.726562 169.976562 236.59375 170.210938 237.445312 170.46875 C 243.539062 172.390625 249.140625 174.621094 254.210938 177.121094 C 253.417969 181.140625 252.449219 185.1875 251.308594 189.222656 C 245.660156 186.476562 239.394531 184.089844 232.605469 182.136719 Z M 229.71875 194.355469 C 230.699219 190.625 231.582031 186.910156 232.359375 183.238281 C 239.132812 185.1875 245.386719 187.574219 250.992188 190.320312 C 249.9375 193.921875 248.753906 197.523438 247.4375 201.09375 C 242.09375 198.492188 236.144531 196.222656 229.71875 194.355469 Z M 243.597656 210.578125 C 241.316406 215.726562 238.800781 220.699219 236.058594 225.488281 C 231.726562 223.363281 226.902344 221.523438 221.6875 220.007812 C 223.234375 215.828125 224.707031 211.519531 226.078125 207.125 C 227.292969 203.207031 228.417969 199.316406 229.445312 195.46875 C 235.828125 197.304688 241.734375 199.546875 247.046875 202.148438 C 245.964844 204.984375 244.839844 207.804688 243.597656 210.578125 Z M 247.582031 232.804688 C 244.578125 230.300781 241.039062 228.015625 237.070312 225.992188 C 239.8125 221.191406 242.339844 216.203125 244.636719 211.042969 C 245.863281 208.265625 247.003906 205.476562 248.058594 202.65625 C 253.070312 205.199219 257.503906 208.0625 261.230469 211.214844 C 257.460938 218.632812 252.882812 225.878906 247.582031 232.804688 Z M 250.398438 235.363281 C 249.777344 234.742188 249.113281 234.132812 248.433594 233.539062 C 253.734375 226.628906 258.328125 219.398438 262.109375 211.980469 C 262.863281 212.660156 263.597656 213.328125 264.277344 214.019531 C 266.804688 216.550781 268.796875 219.140625 270.269531 221.800781 C 269.878906 222.480469 269.492188 223.160156 269.085938 223.824219 C 265.113281 230.257812 260.492188 236.230469 255.308594 241.695312 C 254.066406 239.511719 252.433594 237.414062 250.398438 235.363281 Z M 231.394531 254.332031 C 231.003906 253.957031 230.585938 253.582031 230.167969 253.21875 C 236.363281 247.710938 242.226562 241.480469 247.523438 234.742188 C 247.597656 234.640625 247.667969 234.523438 247.742188 234.4375 C 248.390625 235 249.011719 235.578125 249.589844 236.15625 C 251.65625 238.226562 253.273438 240.367188 254.484375 242.550781 C 248.636719 248.578125 242.035156 253.972656 234.800781 258.683594 C 233.933594 257.195312 232.792969 255.75 231.394531 254.332031 Z M 209.167969 268.632812 C 209.082031 268.546875 209.007812 268.488281 208.921875 268.417969 C 215.867188 264.613281 222.757812 259.699219 229.3125 253.972656 C 229.761719 254.347656 230.195312 254.738281 230.597656 255.144531 C 231.941406 256.503906 233.027344 257.890625 233.863281 259.308594 C 226.785156 263.832031 219.117188 267.695312 210.914062 270.847656 C 210.453125 270.078125 209.875 269.34375 209.167969 268.632812 Z M 140.136719 253.941406 C 146.707031 259.683594 153.609375 264.597656 160.558594 268.402344 C 160.472656 268.488281 160.382812 268.546875 160.3125 268.632812 C 159.605469 269.34375 159.027344 270.078125 158.550781 270.847656 C 150.347656 267.695312 142.691406 263.820312 135.617188 259.308594 C 136.714844 257.414062 138.246094 255.621094 140.136719 253.941406 Z M 121.722656 234.421875 C 121.8125 234.523438 121.882812 234.640625 121.96875 234.742188 C 127.253906 241.480469 133.117188 247.710938 139.3125 253.207031 C 138.894531 253.582031 138.476562 253.957031 138.070312 254.332031 C 136.671875 255.734375 135.53125 257.195312 134.664062 258.683594 C 127.441406 253.972656 120.84375 248.5625 114.996094 242.550781 C 116.570312 239.6875 118.851562 236.953125 121.722656 234.421875 Z M 121.046875 233.527344 C 120.367188 234.121094 119.703125 234.742188 119.082031 235.363281 C 117.03125 237.402344 115.414062 239.511719 114.171875 241.667969 C 108.972656 236.214844 104.367188 230.257812 100.410156 223.824219 C 99.988281 223.160156 99.613281 222.480469 99.210938 221.800781 C 101.128906 218.328125 103.890625 215.046875 107.371094 211.980469 C 111.167969 219.386719 115.746094 226.613281 121.046875 233.527344 Z M 124.859375 211.042969 C 127.140625 216.191406 129.667969 221.179688 132.410156 225.980469 C 128.4375 228.015625 124.902344 230.300781 121.910156 232.789062 C 116.613281 225.878906 112.019531 218.632812 108.25 211.214844 C 111.945312 208.105469 116.378906 205.242188 121.433594 202.699219 C 122.503906 205.503906 123.644531 208.28125 124.859375 211.042969 Z M 143.414062 207.125 C 144.789062 211.519531 146.261719 215.828125 147.792969 220.007812 C 142.578125 221.511719 137.753906 223.363281 133.421875 225.488281 C 130.691406 220.699219 128.164062 215.726562 125.882812 210.578125 C 124.65625 207.816406 123.53125 205.011719 122.460938 202.179688 C 127.730469 199.621094 133.636719 197.363281 140.066406 195.511719 C 141.089844 199.34375 142.1875 203.234375 143.414062 207.125 Z M 161.308594 191.074219 C 162.449219 199.820312 163.777344 208.351562 165.25 216.347656 C 159.546875 217.128906 154.101562 218.242188 149.003906 219.660156 C 146.128906 211.910156 143.488281 203.652344 141.234375 195.179688 C 147.488281 193.417969 154.21875 192.042969 161.308594 191.074219 Z M 159.835938 178.550781 C 160.226562 182.355469 160.671875 186.171875 161.148438 189.929688 C 154.058594 190.886719 147.269531 192.257812 140.929688 194.039062 C 139.964844 190.378906 139.082031 186.679688 138.289062 182.960938 C 144.988281 181.082031 152.226562 179.578125 159.835938 178.550781 Z M 158.566406 164.585938 C 158.765625 167.230469 158.96875 169.660156 159.171875 171.800781 C 159.328125 173.664062 159.519531 175.542969 159.71875 177.410156 C 152.09375 178.421875 144.816406 179.910156 138.027344 181.804688 C 137.148438 177.625 136.367188 173.449219 135.734375 169.269531 C 142.835938 167.257812 150.507812 165.683594 158.566406 164.585938 Z M 158.492188 163.457031 C 150.433594 164.527344 142.738281 166.089844 135.558594 168.113281 C 134.375 160.304688 133.652344 152.570312 133.523438 145.136719 C 140.960938 142.996094 149.003906 141.304688 157.496094 140.148438 C 157.566406 148.550781 158 156.675781 158.492188 163.457031 Z M 184.167969 161.734375 C 175.679688 161.75 167.375 162.300781 159.402344 163.328125 C 158.824219 155.332031 158.476562 147.480469 158.421875 140.019531 C 166.636719 138.917969 175.273438 138.355469 184.167969 138.328125 Z M 210.078125 163.371094 C 202.121094 162.328125 193.800781 161.765625 185.296875 161.734375 L 185.296875 138.328125 C 194.148438 138.339844 202.800781 138.917969 211.074219 140.003906 C 211.015625 147.480469 210.667969 155.34375 210.078125 163.371094 Z M 211.003906 163.484375 C 211.492188 156.691406 211.910156 148.5625 212 140.121094 C 220.433594 141.261719 228.476562 142.9375 235.972656 145.09375 C 235.828125 152.554688 235.105469 160.347656 233.921875 168.199219 C 226.757812 166.160156 219.058594 164.570312 211.003906 163.484375 Z M 209.773438 177.410156 C 209.960938 175.542969 210.148438 173.664062 210.324219 171.800781 C 210.511719 169.675781 210.714844 167.273438 210.914062 164.640625 C 218.871094 165.726562 226.542969 167.332031 233.746094 169.398438 C 233.097656 173.535156 232.332031 177.671875 231.453125 181.804688 C 224.664062 179.910156 217.386719 178.421875 209.773438 177.410156 Z M 208.332031 189.929688 C 208.808594 186.15625 209.253906 182.355469 209.660156 178.523438 C 217.226562 179.550781 224.476562 181.011719 231.21875 182.90625 C 230.410156 186.648438 229.53125 190.367188 228.5625 194.039062 C 222.207031 192.257812 215.4375 190.886719 208.332031 189.929688 Z M 204.230469 216.347656 C 205.703125 208.339844 207.046875 199.808594 208.1875 191.058594 C 215.234375 192.015625 221.976562 193.371094 228.273438 195.136719 C 226.007812 203.625 223.347656 211.910156 220.488281 219.675781 C 215.390625 218.242188 209.933594 217.128906 204.230469 216.347656 Z M 210.324219 243.230469 C 206.726562 242.230469 202.886719 241.421875 198.871094 240.855469 C 200.691406 233.972656 202.4375 226.035156 204.042969 217.460938 C 209.671875 218.226562 215.058594 219.328125 220.101562 220.730469 C 217.023438 228.972656 213.6875 236.589844 210.324219 243.230469 Z M 221.054688 247.261719 C 218.152344 245.84375 214.960938 244.617188 211.507812 243.574219 C 214.914062 236.867188 218.238281 229.246094 221.300781 221.0625 C 226.453125 222.550781 231.234375 224.375 235.507812 226.46875 C 231.207031 233.902344 226.351562 240.855469 221.054688 247.261719 Z M 222.078125 247.78125 C 227.363281 241.378906 232.214844 234.410156 236.519531 226.976562 C 240.449219 228.972656 243.929688 231.242188 246.890625 233.699219 C 246.800781 233.816406 246.714844 233.917969 246.628906 234.03125 C 241.34375 240.769531 235.480469 246.988281 229.3125 252.46875 C 227.234375 250.746094 224.808594 249.171875 222.078125 247.78125 Z M 210.988281 244.601562 C 214.351562 245.601562 217.484375 246.769531 220.300781 248.128906 C 215.148438 254.261719 209.558594 259.871094 203.609375 264.832031 C 202.25 264.179688 200.761719 263.585938 199.175781 263.09375 C 203.03125 258.554688 207.058594 252.191406 210.988281 244.601562 Z M 198.582031 241.96875 C 202.511719 242.503906 206.28125 243.285156 209.804688 244.269531 C 205.804688 252.035156 201.757812 258.382812 197.988281 262.75 C 196.011719 262.199219 193.902344 261.765625 191.707031 261.476562 C 193.976562 257.09375 196.316406 250.34375 198.582031 241.96875 Z M 185.296875 241.046875 C 189.5 241.058594 193.601562 241.335938 197.542969 241.824219 C 195.246094 250.210938 192.847656 256.964844 190.496094 261.332031 C 188.820312 261.144531 187.074219 261.042969 185.296875 261.027344 Z M 178.984375 261.332031 C 176.632812 256.964844 174.234375 250.210938 171.953125 241.824219 C 175.851562 241.320312 179.953125 241.058594 184.167969 241.03125 L 184.167969 261.027344 C 182.40625 261.042969 180.660156 261.144531 178.984375 261.332031 Z M 171.503906 262.75 C 167.734375 258.382812 163.691406 252.035156 159.691406 244.269531 C 163.199219 243.300781 166.957031 242.519531 170.914062 241.96875 C 173.164062 250.355469 175.503906 257.09375 177.785156 261.476562 C 175.578125 261.75 173.46875 262.183594 171.503906 262.75 Z M 165.886719 264.832031 C 159.9375 259.871094 154.347656 254.261719 149.175781 248.144531 C 152.007812 246.800781 155.128906 245.613281 158.507812 244.601562 C 162.433594 252.191406 166.464844 258.554688 170.304688 263.082031 C 168.71875 263.585938 167.230469 264.164062 165.886719 264.832031 Z M 147.402344 247.769531 C 144.6875 249.171875 142.246094 250.746094 140.167969 252.453125 C 134 246.972656 128.136719 240.769531 122.863281 234.03125 C 122.765625 233.917969 122.675781 233.800781 122.589844 233.683594 C 125.523438 231.257812 129.015625 229.015625 132.972656 227.003906 C 137.277344 234.421875 142.117188 241.378906 147.402344 247.769531 Z M 157.972656 243.574219 C 154.535156 244.601562 151.328125 245.832031 148.441406 247.25 C 143.140625 240.855469 138.304688 233.917969 134 226.5 C 138.246094 224.417969 143.027344 222.609375 148.195312 221.105469 C 151.257812 229.261719 154.578125 236.882812 157.972656 243.574219 Z M 170.609375 240.855469 C 166.59375 241.421875 162.765625 242.230469 159.171875 243.230469 C 155.804688 236.589844 152.484375 228.972656 149.410156 220.746094 C 154.417969 219.355469 159.792969 218.257812 165.453125 217.476562 C 167.054688 226.035156 168.804688 233.972656 170.609375 240.855469 Z M 184.167969 216.191406 L 184.167969 239.902344 C 179.867188 239.933594 175.679688 240.222656 171.648438 240.726562 C 169.816406 233.84375 168.039062 225.90625 166.421875 217.347656 C 172.097656 216.609375 178.046875 216.21875 184.167969 216.191406 Z M 184.167969 189.511719 L 184.167969 215.0625 C 178.003906 215.078125 171.980469 215.480469 166.21875 216.21875 C 164.714844 208.207031 163.375 199.664062 162.234375 190.945312 C 169.25 190.03125 176.601562 189.542969 184.167969 189.511719 Z M 184.167969 176.890625 L 184.167969 188.382812 C 176.585938 188.398438 169.195312 188.890625 162.089844 189.800781 C 161.597656 186.042969 161.148438 182.238281 160.746094 178.40625 C 168.242188 177.453125 176.082031 176.917969 184.167969 176.890625 Z M 184.167969 175.761719 C 176.097656 175.777344 168.195312 176.296875 160.628906 177.28125 C 160.195312 173 159.804688 168.707031 159.488281 164.46875 C 167.375 163.441406 175.648438 162.894531 184.167969 162.863281 Z M 185.296875 175.761719 L 185.296875 162.878906 C 193.699219 162.90625 201.992188 163.484375 209.992188 164.527344 C 209.6875 168.75 209.296875 173.015625 208.851562 177.28125 C 201.28125 176.296875 193.382812 175.777344 185.296875 175.761719 Z M 185.296875 188.382812 L 185.296875 176.890625 C 193.355469 176.917969 201.210938 177.425781 208.75 178.394531 C 208.34375 182.226562 207.898438 186.042969 207.40625 189.816406 C 200.300781 188.890625 192.890625 188.398438 185.296875 188.382812 Z M 185.296875 215.0625 L 185.296875 189.511719 C 192.835938 189.527344 200.199219 190.019531 207.261719 190.929688 C 206.121094 199.664062 204.761719 208.207031 203.277344 216.234375 C 197.5 215.480469 191.460938 215.078125 185.296875 215.0625 Z M 185.296875 216.191406 C 191.40625 216.21875 197.355469 216.59375 203.074219 217.332031 C 201.457031 225.90625 199.679688 233.84375 197.832031 240.742188 C 193.800781 240.222656 189.597656 239.933594 185.296875 239.902344 Z M 161.4375 267.605469 C 154.507812 263.832031 147.574219 258.945312 141.003906 253.191406 C 143.027344 251.558594 145.421875 250.039062 148.136719 248.664062 C 153.292969 254.796875 158.867188 260.390625 164.789062 265.394531 C 163.546875 266.058594 162.421875 266.796875 161.4375 267.605469 Z M 204.691406 265.394531 C 210.625 260.40625 216.199219 254.796875 221.34375 248.664062 C 224.027344 250.039062 226.410156 251.558594 228.449219 253.234375 C 221.875 258.960938 214.972656 263.847656 208.042969 267.621094 C 207.058594 266.8125 205.949219 266.074219 204.691406 265.394531 Z M 196.503906 290.367188 C 195.363281 290.105469 194.265625 289.511719 193.210938 288.617188 C 195.074219 288.3125 196.835938 287.90625 198.496094 287.429688 C 200.660156 288.296875 202.785156 288.832031 205.066406 289.035156 C 202.25 289.597656 199.375 290.03125 196.503906 290.367188 Z M 207.953125 280.460938 C 203.652344 284.785156 194.523438 287.574219 184.734375 287.574219 C 174.941406 287.574219 165.828125 284.785156 161.511719 280.460938 C 159.835938 278.785156 158.984375 276.992188 158.984375 275.15625 C 158.984375 268.285156 170.535156 262.707031 184.734375 262.707031 C 194.523438 262.707031 203.652344 265.511719 207.953125 269.832031 C 209.644531 271.511719 210.496094 273.304688 210.496094 275.15625 C 210.496094 276.992188 209.644531 278.785156 207.953125 280.460938 Z M 96.0625 233.0625 C 96.121094 229.59375 97 226.222656 98.601562 222.972656 C 98.878906 223.460938 99.152344 223.941406 99.457031 224.429688 C 103.511719 231.023438 108.265625 237.140625 113.609375 242.738281 C 112.324219 245.28125 111.585938 247.898438 111.398438 250.574219 C 105.867188 245.613281 100.625 239.816406 96.0625 233.0625 Z M 112.46875 251.527344 C 112.539062 248.796875 113.21875 246.148438 114.445312 243.605469 C 120.324219 249.589844 126.910156 254.984375 134.128906 259.683594 C 133.21875 261.503906 132.714844 263.371094 132.585938 265.277344 C 125.914062 261.75 119.007812 257.226562 112.46875 251.527344 Z M 138.878906 277.222656 C 137.726562 276.078125 136.785156 274.894531 136.019531 273.695312 C 143.71875 276.484375 151.429688 278.207031 158.304688 278.984375 C 158.695312 279.722656 159.1875 280.417969 159.792969 281.113281 C 153.554688 281.386719 146.765625 280.417969 140.195312 278.453125 C 139.746094 278.046875 139.285156 277.640625 138.878906 277.222656 Z M 155.488281 286.808594 C 154.390625 286.433594 153.308594 286.027344 152.269531 285.609375 C 155.894531 286.011719 159.632812 285.78125 165.238281 285.132812 C 166.480469 285.78125 167.820312 286.359375 169.28125 286.851562 C 166.203125 287.894531 163.128906 288.210938 159.375 287.863281 C 159.359375 287.863281 159.328125 287.863281 159.328125 287.863281 C 158.042969 287.546875 156.757812 287.183594 155.488281 286.808594 Z M 213.976562 286.808594 C 212.707031 287.183594 211.433594 287.53125 210.148438 287.863281 C 210.136719 287.863281 210.136719 287.863281 210.121094 287.863281 C 206.367188 288.210938 203.320312 287.894531 200.257812 286.867188 C 201.714844 286.359375 203.074219 285.78125 204.300781 285.144531 C 209.859375 285.78125 213.585938 286.011719 217.199219 285.609375 C 216.15625 286.027344 215.074219 286.433594 213.976562 286.808594 Z M 229.269531 278.453125 C 222.699219 280.417969 215.925781 281.386719 209.714844 281.113281 C 210.308594 280.417969 210.800781 279.722656 211.203125 278.984375 C 218.050781 278.207031 225.761719 276.5 233.457031 273.707031 C 232.679688 274.894531 231.738281 276.078125 230.597656 277.222656 C 230.179688 277.640625 229.71875 278.046875 229.269531 278.453125 Z M 236.882812 265.292969 C 236.765625 263.371094 236.246094 261.519531 235.335938 259.683594 C 242.570312 254.984375 249.15625 249.605469 255.035156 243.605469 C 256.289062 246.179688 256.941406 248.839844 257 251.542969 C 250.457031 257.226562 243.554688 261.765625 236.882812 265.292969 Z M 258.082031 250.589844 C 257.894531 247.914062 257.15625 245.296875 255.859375 242.75 C 261.230469 237.140625 265.980469 231.023438 270.039062 224.429688 C 270.328125 223.941406 270.601562 223.460938 270.890625 222.972656 C 272.507812 226.253906 273.359375 229.636719 273.402344 233.09375 C 268.839844 239.832031 263.613281 245.628906 258.082031 250.589844 Z M 274.457031 231.457031 C 274.183594 228.160156 273.214844 224.953125 271.585938 221.8125 C 273.347656 218.734375 274.964844 215.609375 276.378906 212.429688 C 278.15625 216 279.066406 219.644531 279.109375 223.390625 C 277.664062 226.210938 276.105469 228.898438 274.457031 231.457031 Z M 270.660156 186.300781 C 266.386719 182.671875 261.273438 179.375 255.511719 176.457031 C 257 168.675781 257.820312 160.984375 257.921875 153.59375 C 263.914062 156.644531 269.160156 160.117188 273.519531 163.917969 C 273.519531 170.789062 272.683594 177.859375 270.964844 185.085938 C 270.875 185.492188 270.761719 185.898438 270.660156 186.300781 Z M 220.433594 94.601562 C 223.507812 97.363281 226.121094 100.761719 228.304688 104.765625 C 222.035156 103.03125 215.335938 101.6875 208.34375 100.746094 C 207.320312 97.058594 206.035156 93.835938 204.445312 91.277344 C 210.035156 92.058594 215.390625 93.171875 220.433594 94.601562 Z M 149.003906 94.644531 C 154.042969 93.214844 159.429688 92.085938 165.035156 91.289062 C 163.445312 93.851562 162.175781 97.074219 161.148438 100.746094 C 154.160156 101.699219 147.460938 103.046875 141.191406 104.765625 C 143.34375 100.804688 145.941406 97.40625 149.003906 94.644531 Z M 98.515625 185.085938 C 96.8125 177.859375 95.976562 170.773438 95.960938 163.90625 C 100.277344 160.160156 105.519531 156.703125 111.558594 153.640625 C 111.671875 160.96875 112.480469 168.574219 113.953125 176.296875 C 108.179688 179.203125 103.066406 182.46875 98.777344 186.085938 C 98.691406 185.753906 98.601562 185.421875 98.515625 185.085938 Z M 85.777344 211.792969 C 85.777344 207.816406 86.746094 203.941406 88.582031 200.242188 C 89.664062 203.886719 90.992188 207.5 92.523438 211.054688 C 90.734375 214.367188 89.679688 217.78125 89.347656 221.25 C 88.046875 218.53125 86.863281 215.699219 85.808594 212.734375 C 85.792969 212.429688 85.777344 212.113281 85.777344 211.792969 Z M 91.121094 229.507812 C 90.820312 228.351562 90.617188 227.191406 90.5 226.023438 C 91.886719 228.582031 93.359375 231.039062 94.921875 233.367188 C 94.921875 233.382812 94.921875 233.394531 94.921875 233.410156 C 94.921875 235.074219 95.109375 236.722656 95.46875 238.355469 C 93.867188 235.476562 92.421875 232.527344 91.121094 229.507812 Z M 102.761719 249.5625 C 102.691406 249.488281 102.617188 249.429688 102.53125 249.402344 C 101 247.320312 99.570312 245.179688 98.214844 242.996094 C 97.027344 240.410156 96.320312 237.761719 96.121094 235.089844 C 100.683594 241.59375 105.867188 247.203125 111.324219 252.003906 C 111.339844 254.652344 111.917969 257.269531 113.03125 259.8125 C 109.246094 256.804688 105.75 253.40625 102.761719 249.5625 Z M 120.554688 268.300781 C 119.066406 266.882812 117.765625 265.421875 116.683594 263.917969 C 122.242188 267.695312 128.25 270.714844 134.332031 273.058594 C 135.167969 274.632812 136.296875 276.152344 137.726562 277.640625 C 133.074219 276.035156 128.613281 273.941406 124.582031 271.425781 C 123.226562 270.410156 121.882812 269.386719 120.554688 268.300781 Z M 248.925781 268.300781 C 247.566406 269.398438 246.183594 270.46875 244.78125 271.496094 C 240.765625 274.011719 236.304688 276.078125 231.683594 277.671875 C 233.097656 276.210938 234.238281 274.664062 235.105469 273.074219 C 241.183594 270.746094 247.191406 267.722656 252.753906 263.949219 C 251.683594 265.4375 250.398438 266.898438 248.925781 268.300781 Z M 266.933594 249.402344 C 266.863281 249.429688 266.789062 249.488281 266.730469 249.5625 C 263.726562 253.421875 260.21875 256.820312 256.433594 259.84375 C 257.546875 257.28125 258.125 254.664062 258.140625 252.019531 C 263.597656 247.21875 268.78125 241.609375 273.347656 235.132812 C 273.144531 237.804688 272.421875 240.4375 271.253906 243.027344 C 269.894531 245.195312 268.464844 247.320312 266.933594 249.402344 Z M 273.996094 238.355469 C 274.355469 236.734375 274.546875 235.074219 274.546875 233.410156 C 276.105469 231.066406 277.578125 228.640625 278.964844 226.066406 C 278.847656 227.222656 278.644531 228.363281 278.359375 229.519531 C 277.042969 232.527344 275.597656 235.492188 273.996094 238.355469 Z M 277.835938 147.234375 C 275.945312 144.773438 273.664062 142.417969 271.078125 140.164062 C 270.183594 137.371094 269.128906 134.625 267.917969 131.949219 C 269.78125 133.742188 271.441406 135.59375 272.855469 137.53125 C 274.703125 140.667969 276.351562 143.921875 277.835938 147.234375 Z M 246.585938 111.433594 C 241.472656 109.015625 235.839844 106.921875 229.804688 105.1875 C 227.839844 101.367188 225.5 98.070312 222.773438 95.265625 C 226.785156 96.511719 230.585938 97.96875 234.109375 99.605469 C 235.480469 100.371094 236.839844 101.152344 238.179688 101.992188 C 241.359375 104.59375 244.175781 107.757812 246.585938 111.433594 Z M 200.171875 88.023438 C 200.820312 88.542969 201.425781 89.136719 202.019531 89.828125 C 196.605469 89.179688 191.015625 88.832031 185.296875 88.804688 L 185.296875 86.878906 C 190.320312 86.894531 195.289062 87.285156 200.171875 88.023438 Z M 184.167969 86.867188 L 184.167969 88.804688 C 178.480469 88.832031 172.875 89.195312 167.460938 89.84375 C 168.039062 89.152344 168.660156 88.542969 169.308594 88.023438 C 174.160156 87.285156 179.128906 86.894531 184.167969 86.867188 Z M 96.695312 137.472656 C 98.097656 135.578125 99.714844 133.742188 101.550781 131.992188 C 100.320312 134.695312 99.265625 137.472656 98.371094 140.308594 C 95.742188 142.578125 93.476562 144.976562 91.585938 147.4375 C 93.117188 144.007812 94.820312 140.683594 96.695312 137.472656 Z M 82.789062 187.023438 C 82.976562 184.175781 83.640625 181.386719 84.769531 178.667969 C 85.144531 185.363281 86.285156 192.042969 88.117188 198.621094 C 86.242188 202.078125 85.128906 205.632812 84.78125 209.292969 C 83.453125 202.671875 82.761719 195.859375 82.761719 188.960938 C 82.761719 188.3125 82.773438 187.660156 82.789062 187.023438 Z M 81.027344 188.71875 C 81.027344 188.789062 81.042969 188.847656 81.070312 188.917969 C 81.070312 188.933594 81.054688 188.949219 81.054688 188.960938 C 81.054688 216.679688 91.84375 242.75 111.425781 262.359375 C 131.011719 281.964844 157.035156 292.75 184.734375 292.75 C 241.863281 292.75 288.351562 246.234375 288.410156 189.050781 C 288.453125 188.949219 288.480469 188.832031 288.480469 188.71875 C 288.480469 187.804688 288.421875 186.910156 288.335938 186.011719 C 287.601562 159.394531 276.929688 134.464844 258.039062 115.566406 C 238.457031 95.960938 212.433594 85.160156 184.734375 85.160156 C 157.046875 85.160156 131.011719 95.960938 111.425781 115.566406 C 92.421875 134.597656 81.734375 159.699219 81.128906 186.519531 C 81.054688 187.257812 81.027344 187.980469 81.027344 188.71875 " fill-opacity="1" fill-rule="nonzero"/><g clip-path="url(#645d078e1c)"><path fill="#ffffff" d="M 294.488281 209.175781 C 292.914062 209.308594 291.902344 210.363281 292.222656 211.519531 C 292.539062 212.691406 294.070312 213.527344 295.644531 213.398438 C 306.648438 212.472656 315.488281 210.8125 321.566406 208.441406 C 328.023438 205.921875 331.558594 202.570312 331.558594 198.390625 C 331.558594 189.714844 315.039062 179.652344 288.351562 170.410156 C 262.585938 161.488281 227.046875 153.046875 187.835938 147.21875 C 168.023438 144.285156 149.191406 142.289062 132.078125 141.1875 C 107.296875 139.597656 86.066406 139.917969 70.746094 142 C 54.484375 144.210938 44.5625 148.5625 43.539062 154.953125 C 43.480469 155.332031 43.449219 155.707031 43.449219 156.066406 C 43.449219 159.667969 46.136719 163.429688 51.105469 167.230469 C 55.886719 170.859375 62.847656 174.605469 71.597656 178.304688 C 73.042969 178.914062 74.789062 178.609375 75.496094 177.597656 C 76.203125 176.601562 75.613281 175.300781 74.167969 174.675781 C 65.949219 171.207031 59.464844 167.738281 55.148438 164.441406 C 51.335938 161.535156 49.269531 158.828125 49.269531 156.445312 C 49.269531 156.210938 49.300781 155.996094 49.328125 155.808594 C 50.050781 151.3125 58.414062 148.058594 72.261719 146.179688 C 87.050781 144.152344 107.757812 143.878906 132.078125 145.425781 C 149.003906 146.511719 167.632812 148.492188 187.171875 151.398438 C 225.90625 157.136719 260.941406 165.453125 286.257812 174.214844 C 310.632812 182.660156 325.726562 191.261719 325.726562 198.015625 C 325.726562 200.601562 323.167969 202.828125 318.492188 204.652344 C 312.988281 206.792969 304.800781 208.308594 294.488281 209.175781 " fill-opacity="1" fill-rule="nonzero"/></g><g clip-path="url(#3aa3d7fb56)"><path fill="#ffffff" d="M 291.789062 82.789062 L 291.933594 82.789062 C 292.914062 95.730469 303.226562 106.066406 316.152344 107.035156 L 316.152344 107.195312 C 303.226562 108.164062 292.914062 118.503906 291.933594 131.445312 L 291.789062 131.445312 C 290.804688 118.503906 280.496094 108.164062 267.570312 107.195312 L 267.570312 107.035156 C 280.496094 106.066406 290.804688 95.730469 291.789062 82.789062 " fill-opacity="1" fill-rule="evenodd"/></g><path fill="#ffffff" d="M 316.542969 127.4375 L 316.613281 127.4375 C 317.019531 132.949219 321.40625 137.34375 326.894531 137.75 L 326.894531 137.820312 C 321.40625 138.226562 317.019531 142.621094 316.613281 148.117188 L 316.542969 148.117188 C 316.136719 142.621094 311.746094 138.226562 306.246094 137.820312 L 306.246094 137.75 C 311.746094 137.34375 316.136719 132.949219 316.542969 127.4375 " fill-opacity="1" fill-rule="evenodd"/><path stroke-linecap="butt" transform="matrix(0.736152, -0.143458, 0.143458, 0.736152, 16.569089, 164.118476)" fill="none" stroke-linejoin="miter" d="M 2.804342 54.998098 L 34.774732 54.998745 C 41.375357 55.00092 46.187161 50.186584 46.187212 43.569626 L 46.19109 37.314242 C 46.191142 30.697284 41.376806 25.885481 34.776181 25.883306 L 19.600478 25.881543 C 18.808878 25.886469 18.191933 25.267448 18.19524 24.488065 C 18.195426 23.697461 18.809335 23.07952 19.599938 23.079707 L 44.794028 23.081088 C 45.573411 23.084394 46.18732 22.466453 46.190626 21.68707 L 46.189983 11.615569 C 46.191166 10.819853 45.573225 10.205944 44.793841 10.202638 L 12.822455 10.207103 C 6.22183 10.204928 1.39469 15.016275 1.394638 21.633233 L 1.392884 27.904949 C 1.394825 34.511683 6.220381 39.320367 12.821006 39.322542 L 27.997705 39.319192 C 28.771976 39.321502 29.389917 39.935411 29.388734 40.731127 C 29.391537 41.506394 28.772516 42.123339 27.992136 42.125145 L 2.803159 42.12476 C 2.007443 42.123577 1.394531 42.736406 1.396337 43.516786 L 1.393991 53.603623 C 1.395797 54.384003 2.00763 55.002027 2.804342 54.998098 Z M 2.804342 54.998098 " stroke="#231f20" stroke-width="11.269819" stroke-opacity="1" stroke-miterlimit="4"/><path stroke-linecap="butt" transform="matrix(0.741525, -0.112428, 0.112428, 0.741525, 52.658511, 157.175879)" fill="none" stroke-linejoin="miter" d="M 2.804807 55.000122 L 16.743418 55.001036 C 17.523499 54.998148 18.196124 54.383701 18.193236 53.60362 L 18.193443 42.067045 C 18.192117 41.276665 18.807317 40.658779 19.602065 40.663383 C 20.382146 40.660495 20.994883 41.274914 20.995428 42.070443 L 20.995221 53.607019 C 20.998108 54.387099 21.610845 55.001518 22.390926 54.998631 L 36.334687 55.000325 C 37.125066 54.998999 37.797691 54.384551 37.794803 53.604471 L 37.796451 47.999721 C 37.795274 47.277846 37.739761 46.879608 37.564581 46.263048 L 33.763442 33.496911 C 33.533662 32.719304 33.598929 32.323575 33.766273 31.706268 L 37.561672 18.938232 C 37.739315 18.322487 37.794449 17.819864 37.798255 17.204102 L 37.797561 11.6148 C 37.797016 10.819271 37.126073 10.206563 36.330544 10.207108 L 22.391933 10.206195 C 21.612633 10.203933 20.997433 10.821819 20.998759 11.612199 L 20.994964 23.137695 C 20.99629 23.928074 20.38109 24.54596 19.601791 24.543698 C 18.811411 24.545025 18.193525 23.929825 18.192979 23.134296 L 18.195994 11.613949 C 18.195448 10.81842 17.524506 10.205712 16.745206 10.20345 L 2.800664 10.206905 C 2.011066 10.203082 1.395866 10.820968 1.397192 11.611348 L 1.393653 53.606168 C 1.396541 54.386249 2.009278 55.000668 2.804807 55.000122 Z M 2.804807 55.000122 " stroke="#231f20" stroke-width="11.269819" stroke-opacity="1" stroke-miterlimit="4"/><path stroke-linecap="butt" transform="matrix(0.744423, -0.0912908, 0.0912908, 0.744423, 82.443851, 152.77584)" fill="none" stroke-linejoin="miter" d="M 2.8548 54.998029 L 16.802286 54.997814 C 17.578799 54.998588 18.194318 54.386667 18.195726 53.604985 L 18.192151 11.615241 C 18.195461 10.81805 17.525407 10.205897 16.743724 10.204489 L 2.801408 10.205339 C 2.009386 10.202663 1.393233 10.819753 1.395727 11.612409 L 1.393498 53.606688 C 1.392724 54.383201 2.077653 55.002425 2.8548 54.998029 Z M 2.8548 54.998029 " stroke="#231f20" stroke-width="11.269819" stroke-opacity="1" stroke-miterlimit="4"/><path stroke-linecap="butt" transform="matrix(0.746623, -0.0710916, 0.0710916, 0.746623, 97.701027, 150.827553)" fill="none" stroke-linejoin="miter" d="M 2.802182 54.99839 L 33.596867 55.000726 C 34.376326 55.001698 34.994795 54.385673 34.995767 53.606214 L 34.9928 41.274365 C 34.993771 40.494906 34.377253 39.881622 33.597794 39.880651 L 19.654684 39.881922 C 18.864855 39.879963 18.195994 39.266927 18.191781 38.486974 L 18.192223 11.668345 C 18.194676 10.873331 17.577909 10.207705 16.79845 10.206733 L 2.855835 10.20282 C 2.075882 10.207033 1.394701 10.822318 1.392742 11.612147 L 1.396806 53.603688 C 1.395834 54.383147 2.011859 55.001616 2.802182 54.99839 Z M 2.802182 54.99839 " stroke="#231f20" stroke-width="11.269819" stroke-opacity="1" stroke-miterlimit="4"/><path stroke-linecap="butt" transform="matrix(0.748663, -0.0447569, 0.0447569, 0.748663, 125.757961, 148.171764)" fill="none" stroke-linejoin="miter" d="M 2.800762 54.999682 L 33.600478 54.999141 C 34.377934 54.99866 34.99388 54.383279 34.993399 53.605823 L 34.994782 41.276641 C 34.994302 40.499185 34.37892 39.883239 33.601464 39.883719 L 19.654982 39.879568 C 18.861929 39.879116 18.194246 39.26526 18.193766 38.487804 L 18.195231 11.669262 C 18.195683 10.876209 17.578521 10.202763 16.801065 10.203243 L 2.859471 10.204601 C 2.076816 10.204771 1.392971 10.821311 1.392519 11.614364 L 1.391847 53.605828 C 1.392328 54.383284 2.007709 54.99923 2.800762 54.999682 Z M 2.800762 54.999682 " stroke="#231f20" stroke-width="11.269819" stroke-opacity="1" stroke-miterlimit="4"/><path stroke-linecap="butt" transform="matrix(0.749864, -0.0143039, 0.0143039, 0.749864, 154.025634, 146.417378)" fill="none" stroke-linejoin="miter" d="M 12.820244 55.000092 L 44.794803 55.000529 C 45.576209 54.999807 46.188071 54.329063 46.18725 53.552864 L 46.187044 41.274584 C 46.191429 40.498485 45.572858 39.882409 44.79666 39.883231 L 19.599393 39.88184 C 18.807572 39.882363 18.194209 39.266387 18.193486 38.484981 L 18.193662 26.732846 C 18.193139 25.941025 18.809215 25.322454 19.601036 25.32193 L 44.793095 25.323222 C 45.574501 25.3225 46.19157 24.651854 46.190748 23.875656 L 46.190244 11.612998 C 46.189721 10.821178 45.576357 10.205201 44.794951 10.205923 L 12.820391 10.205485 C 6.220249 10.204609 1.393263 15.014466 1.391989 21.635438 L 1.395499 43.571788 C 1.394324 50.187553 6.220101 54.999215 12.820244 55.000092 Z M 12.820244 55.000092 " stroke="#231f20" stroke-width="11.269819" stroke-opacity="1" stroke-miterlimit="4"/><path stroke-linecap="butt" transform="matrix(0.749726, 0.0202558, -0.0202558, 0.749726, 190.876427, 145.740665)" fill="none" stroke-linejoin="miter" d="M 2.854417 55.002297 L 44.848798 54.998332 C 45.630325 54.998058 46.244127 54.382297 46.243994 53.605976 L 46.242828 42.956289 C 46.242695 42.179967 45.574729 41.562366 44.793201 41.56264 L 19.601667 41.560713 C 18.809726 41.561269 18.193966 40.947467 18.193833 40.171145 C 18.193137 39.373998 18.806939 38.758238 19.604226 38.762748 L 42.607371 38.761277 C 43.388898 38.761003 44.0027 38.145242 44.002567 37.368921 L 44.000405 27.839461 C 44.000131 27.057933 43.332307 26.445538 42.550779 26.445812 L 19.599699 26.445877 C 18.807758 26.446432 18.191857 25.827424 18.191724 25.051103 C 18.196375 24.259021 18.810177 23.643261 19.602118 23.642706 L 44.850923 23.643085 C 45.627244 23.642951 46.246253 23.02705 46.245978 22.245523 L 46.245235 11.611455 C 46.244679 10.819514 45.628919 10.205712 44.847391 10.205986 L 2.800806 10.206152 C 2.008865 10.206707 1.395063 10.822468 1.395618 11.614408 L 1.394237 53.603723 C 1.394511 54.385251 2.078096 55.002431 2.854417 55.002297 Z M 2.854417 55.002297 " stroke="#231f20" stroke-width="11.269819" stroke-opacity="1" stroke-miterlimit="4"/><path stroke-linecap="butt" transform="matrix(0.74828, 0.0507592, -0.0507592, 0.74828, 227.62042, 146.839224)" fill="none" stroke-linejoin="miter" d="M 11.306616 55.002348 L 25.24998 55.001382 C 26.03816 55.00012 26.655802 54.331786 26.654892 53.548802 L 26.657668 26.731917 C 26.656053 25.93854 27.324341 25.324194 28.102128 25.323636 L 33.708785 25.324394 C 34.486572 25.323836 35.102543 24.707819 35.101985 23.930031 L 35.101874 11.615344 C 35.103783 10.873931 34.489437 10.205644 33.706454 10.206554 L 2.803783 10.152056 C 2.010054 10.148475 1.394083 10.764492 1.395698 11.557868 L 1.394491 23.930069 C 1.395048 24.707856 2.011066 25.323827 2.804442 25.322212 L 8.39551 25.324027 C 9.18369 25.322764 9.85722 25.940054 9.853639 26.733783 L 9.85474 53.607829 C 9.855298 54.385616 10.523279 54.998062 11.306616 55.002348 Z M 11.306616 55.002348 " stroke="#231f20" stroke-width="11.269819" stroke-opacity="1" stroke-miterlimit="4"/><path stroke-linecap="butt" transform="matrix(0.745594, 0.0811785, -0.0811785, 0.745594, 255.967663, 148.697729)" fill="none" stroke-linejoin="miter" d="M 2.856767 55.000282 L 44.848457 55.002073 C 45.628959 55.00092 46.242872 54.383971 46.241719 53.603469 L 46.245658 42.957162 C 46.244504 42.176659 45.575215 41.563206 44.794713 41.56436 L 19.599586 41.562249 C 18.808728 41.56453 18.19178 40.950617 18.195804 40.169551 C 18.19296 39.373516 18.807436 38.761745 19.603472 38.7589 L 42.608373 38.758478 C 43.389439 38.762502 44.003352 38.145554 44.002199 37.365052 L 44.002512 27.840309 C 44.001359 27.059807 43.332069 26.446354 42.551003 26.442329 L 19.604184 26.446906 C 18.807585 26.444573 18.195814 25.830096 18.194661 25.049594 C 18.19238 24.258736 18.811471 23.641224 19.602892 23.644121 L 44.849796 23.640594 C 45.630862 23.644618 46.244775 23.02767 46.243622 22.247168 L 46.24351 11.611779 C 46.241229 10.820922 45.629459 10.206445 44.848957 10.207598 L 2.804926 10.206267 C 2.008326 10.203934 1.394413 10.820882 1.396694 11.61174 L 1.394903 53.603429 C 1.396056 54.383932 2.076265 55.001435 2.856767 55.000282 Z M 2.856767 55.000282 " stroke="#231f20" stroke-width="11.269819" stroke-opacity="1" stroke-miterlimit="4"/><path stroke-linecap="butt" transform="matrix(0.741062, 0.11544, -0.11544, 0.741062, 292.646908, 152.71896)" fill="none" stroke-linejoin="miter" d="M 2.803087 54.999732 L 16.798318 55.00186 C 17.578404 55.001578 18.196061 54.330806 18.195779 53.55072 L 18.193638 40.441707 C 18.193356 39.661621 18.809538 39.049062 19.599917 39.047176 L 27.996735 39.046395 C 28.771675 39.046914 29.38938 39.662295 29.389663 40.442381 L 29.389527 53.60446 C 29.38981 54.384546 30.002369 55.000729 30.797894 54.998041 L 44.793125 55.00017 C 45.573211 54.999887 46.190868 54.329116 46.190585 53.54903 L 46.186688 39.718143 C 46.187575 36.407724 43.783784 34.004282 40.473364 34.003395 L 39.983538 34.005902 C 39.192358 34.002642 38.574652 33.387261 38.57437 32.607175 C 38.57763 31.815995 39.188667 31.204237 39.984191 31.201549 L 40.474819 31.204188 C 43.784437 31.199929 46.187878 28.796138 46.188766 25.485718 L 46.189841 19.33412 C 46.187449 14.073887 42.332388 10.20448 37.072154 10.206873 L 2.804179 10.205341 C 2.007852 10.202883 1.392471 10.820588 1.394357 11.610967 L 1.394721 53.606151 C 1.395003 54.386237 2.007563 55.002419 2.803087 54.999732 Z M 19.602172 26.169409 C 18.811794 26.171295 18.194088 25.555914 18.192202 24.765535 C 18.19192 23.985449 18.807301 23.367744 19.603627 23.370202 L 27.995299 23.370223 C 28.775385 23.36994 29.387944 23.986123 29.387425 24.761063 C 29.390113 25.556587 28.77393 26.169147 27.993844 26.169429 Z M 19.602172 26.169409 " stroke="#231f20" stroke-width="11.269819" stroke-opacity="1" stroke-miterlimit="4"/><path stroke-linecap="butt" transform="matrix(0.735563, 0.146449, -0.146449, 0.735563, 328.946467, 158.462421)" fill="none" stroke-linejoin="miter" d="M 2.855327 54.999183 L 16.801028 55.000054 C 17.5763 54.999706 18.191741 54.383291 18.196501 53.607002 L 18.195143 45.758266 C 18.193778 44.977886 18.810236 44.366579 19.600832 44.36318 C 20.38223 44.366923 20.998598 45.035478 20.994855 45.816876 L 20.995242 53.607389 C 20.995591 54.382661 21.66512 54.998148 22.446517 55.001891 L 36.386093 54.998671 C 37.182815 54.999362 37.798256 54.382948 37.797907 53.607676 L 37.794001 21.633579 C 37.793617 15.016699 32.985795 10.206656 26.368916 10.207041 L 12.821576 10.206515 C 6.22002 10.203849 1.394653 15.014721 1.395037 21.631601 L 1.393836 53.606715 C 1.395201 54.387095 2.080055 54.999531 2.855327 54.999183 Z M 19.602282 30.927177 C 18.810669 30.925469 18.195271 30.315136 18.195963 29.518414 L 18.193711 25.052682 C 18.194403 24.255961 18.809844 23.639546 19.601458 23.641255 C 20.381838 23.63989 20.998253 24.255331 20.997561 25.052052 L 20.994705 29.518801 C 20.999121 30.314505 20.382663 30.925812 19.602282 30.927177 Z M 19.602282 30.927177 " stroke="#231f20" stroke-width="11.269819" stroke-opacity="1" stroke-miterlimit="4"/><g fill="#ffffff" fill-opacity="1"><g transform="translate(24.459289, 204.606831)"><g><path d="M 2.0625 -0.402344 L 25.597656 -4.988281 C 30.460938 -5.9375 33.3125 -10.171875 32.367188 -15.035156 L 31.464844 -19.652344 C 30.519531 -24.515625 26.28125 -27.367188 21.417969 -26.421875 L 10.25 -24.246094 C 9.671875 -24.132812 9.128906 -24.496094 9.019531 -25.074219 C 8.90625 -25.652344 9.269531 -26.191406 9.847656 -26.304688 L 28.394531 -29.917969 C 28.972656 -30.03125 29.335938 -30.574219 29.226562 -31.152344 L 27.777344 -38.570312 C 27.667969 -39.148438 27.125 -39.511719 26.546875 -39.398438 L 3.011719 -34.8125 C -1.851562 -33.867188 -4.703125 -29.628906 -3.757812 -24.765625 L -2.855469 -20.148438 C -1.910156 -15.285156 2.324219 -12.433594 7.191406 -13.378906 L 18.359375 -15.558594 C 18.9375 -15.667969 19.476562 -15.304688 19.589844 -14.726562 C 19.703125 -14.148438 19.339844 -13.609375 18.761719 -13.496094 L 0.214844 -9.882812 C -0.363281 -9.769531 -0.730469 -9.226562 -0.617188 -8.648438 L 0.828125 -1.230469 C 0.941406 -0.652344 1.484375 -0.289062 2.0625 -0.402344 Z M 2.0625 -0.402344 "/></g></g></g><g fill="#ffffff" fill-opacity="1"><g transform="translate(58.842026, 197.959778)"><g><path d="M 2.074219 -0.316406 L 12.414062 -1.882812 C 12.996094 -1.96875 13.425781 -2.503906 13.335938 -3.082031 L 12.039062 -11.636719 C 11.949219 -12.21875 12.339844 -12.742188 12.917969 -12.832031 C 13.5 -12.921875 14.027344 -12.53125 14.113281 -11.953125 L 15.410156 -3.398438 C 15.5 -2.816406 16.027344 -2.429688 16.605469 -2.519531 L 26.945312 -4.085938 C 27.527344 -4.171875 27.957031 -4.707031 27.867188 -5.285156 L 27.238281 -9.4375 C 27.15625 -9.976562 27.070312 -10.261719 26.875 -10.699219 L 22.617188 -19.738281 C 22.363281 -20.292969 22.363281 -20.589844 22.417969 -21.066406 L 23.804688 -30.960938 C 23.859375 -31.4375 23.84375 -31.816406 23.777344 -32.273438 L 23.144531 -36.425781 C 23.058594 -37.007812 22.492188 -37.386719 21.910156 -37.300781 L 11.570312 -35.730469 C 10.988281 -35.644531 10.601562 -35.117188 10.691406 -34.535156 L 11.988281 -25.984375 C 12.074219 -25.402344 11.6875 -24.878906 11.105469 -24.789062 C 10.527344 -24.699219 10 -25.089844 9.910156 -25.667969 L 8.613281 -34.222656 C 8.527344 -34.804688 7.960938 -35.183594 7.378906 -35.097656 L -2.960938 -33.527344 C -3.542969 -33.441406 -3.929688 -32.914062 -3.839844 -32.332031 L 0.878906 -1.195312 C 0.96875 -0.613281 1.496094 -0.226562 2.074219 -0.316406 Z M 2.074219 -0.316406 "/></g></g></g><g fill="#ffffff" fill-opacity="1"><g transform="translate(87.464844, 193.719115)"><g><path d="M 2.125 -0.261719 L 12.503906 -1.535156 C 13.085938 -1.605469 13.488281 -2.121094 13.417969 -2.703125 L 9.585938 -33.964844 C 9.511719 -34.546875 8.957031 -34.945312 8.375 -34.871094 L -2.003906 -33.601562 C -2.589844 -33.527344 -2.992188 -33.011719 -2.917969 -32.429688 L 0.914062 -1.167969 C 0.984375 -0.585938 1.542969 -0.1875 2.125 -0.261719 Z M 2.125 -0.261719 "/></g></g></g><g fill="#ffffff" fill-opacity="1"><g transform="translate(101.611066, 191.89182)"><g><path d="M 2.089844 -0.199219 L 25.082031 -2.386719 C 25.667969 -2.445312 26.082031 -2.949219 26.027344 -3.53125 L 25.152344 -12.730469 C 25.097656 -13.316406 24.59375 -13.730469 24.007812 -13.675781 L 13.597656 -12.683594 C 13.011719 -12.628906 12.46875 -13.039062 12.410156 -13.625 L 10.503906 -33.648438 C 10.449219 -34.234375 9.941406 -34.691406 9.355469 -34.636719 L -1.050781 -33.644531 C -1.636719 -33.589844 -2.09375 -33.082031 -2.039062 -32.496094 L 0.945312 -1.144531 C 1 -0.558594 1.503906 -0.144531 2.089844 -0.199219 Z M 2.089844 -0.199219 "/></g></g></g><g fill="#ffffff" fill-opacity="1"><g transform="translate(128.219592, 189.348248)"><g><path d="M 2.097656 -0.125 L 25.152344 -1.503906 C 25.738281 -1.539062 26.171875 -2.027344 26.136719 -2.613281 L 25.585938 -11.835938 C 25.550781 -12.421875 25.0625 -12.855469 24.472656 -12.820312 L 14.035156 -12.199219 C 13.449219 -12.164062 12.917969 -12.59375 12.882812 -13.179688 L 11.683594 -33.257812 C 11.648438 -33.84375 11.15625 -34.320312 10.570312 -34.285156 L 0.132812 -33.660156 C -0.453125 -33.625 -0.929688 -33.136719 -0.894531 -32.550781 L 0.984375 -1.109375 C 1.019531 -0.523438 1.507812 -0.0898438 2.097656 -0.125 Z M 2.097656 -0.125 "/></g></g></g><g fill="#ffffff" fill-opacity="1"><g transform="translate(154.812347, 187.659873)"><g><path d="M 9.613281 -0.183594 L 33.585938 -0.640625 C 34.175781 -0.652344 34.628906 -1.164062 34.617188 -1.753906 L 34.441406 -10.945312 C 34.429688 -11.535156 33.960938 -11.988281 33.371094 -11.976562 L 14.476562 -11.617188 C 13.890625 -11.605469 13.421875 -12.058594 13.410156 -12.644531 L 13.242188 -21.460938 C 13.230469 -22.050781 13.683594 -22.519531 14.269531 -22.53125 L 33.164062 -22.894531 C 33.75 -22.902344 34.203125 -23.417969 34.191406 -24.003906 L 34.015625 -33.199219 C 34.003906 -33.785156 33.535156 -34.238281 32.945312 -34.230469 L 8.972656 -33.769531 C 4.019531 -33.675781 0.476562 -29.996094 0.574219 -25.042969 L 0.886719 -8.585938 C 0.980469 -3.628906 4.660156 -0.0898438 9.613281 -0.183594 Z M 9.613281 -0.183594 "/></g></g></g><g fill="#ffffff" fill-opacity="1"><g transform="translate(189.762359, 186.975615)"><g><path d="M 2.140625 0.0585938 L 33.625 0.910156 C 34.210938 0.925781 34.6875 0.476562 34.703125 -0.113281 L 34.917969 -8.089844 C 34.933594 -8.675781 34.441406 -9.152344 33.855469 -9.167969 L 14.964844 -9.675781 C 14.375 -9.695312 13.925781 -10.167969 13.941406 -10.753906 C 13.960938 -11.34375 14.433594 -11.792969 15.019531 -11.777344 L 32.273438 -11.308594 C 32.859375 -11.292969 33.335938 -11.742188 33.351562 -12.332031 L 33.542969 -19.46875 C 33.558594 -20.054688 33.070312 -20.53125 32.480469 -20.546875 L 15.269531 -21.011719 C 14.683594 -21.027344 14.234375 -21.5 14.25 -22.089844 C 14.265625 -22.675781 14.738281 -23.125 15.328125 -23.109375 L 34.257812 -22.597656 C 34.847656 -22.582031 35.320312 -23.03125 35.335938 -23.621094 L 35.550781 -31.59375 C 35.566406 -32.183594 35.117188 -32.65625 34.53125 -32.671875 L 3.007812 -33.523438 C 2.417969 -33.539062 1.945312 -33.089844 1.929688 -32.503906 L 1.078125 -1.019531 C 1.0625 -0.433594 1.554688 0.0429688 2.140625 0.0585938 Z M 2.140625 0.0585938 "/></g></g></g><g fill="#ffffff" fill-opacity="1"><g transform="translate(224.828664, 187.994641)"><g><path d="M 8.464844 0.574219 L 18.894531 1.28125 C 19.480469 1.320312 19.976562 0.851562 20.015625 0.261719 L 21.378906 -19.804688 C 21.417969 -20.390625 21.953125 -20.816406 22.539062 -20.777344 L 26.726562 -20.492188 C 27.3125 -20.453125 27.804688 -20.882812 27.847656 -21.46875 L 28.472656 -30.6875 C 28.507812 -31.230469 28.082031 -31.765625 27.496094 -31.804688 L 4.371094 -33.417969 C 3.785156 -33.457031 3.292969 -33.027344 3.253906 -32.441406 L 2.625 -23.179688 C 2.585938 -22.59375 3.015625 -22.101562 3.601562 -22.0625 L 7.789062 -21.777344 C 8.378906 -21.738281 8.847656 -21.242188 8.808594 -20.65625 L 7.445312 -0.546875 C 7.40625 0.0390625 7.875 0.535156 8.464844 0.574219 Z M 8.464844 0.574219 "/></g></g></g><g fill="#ffffff" fill-opacity="1"><g transform="translate(251.502848, 189.705382)"><g><path d="M 2.128906 0.230469 L 33.4375 3.640625 C 34.023438 3.703125 34.53125 3.296875 34.59375 2.710938 L 35.460938 -5.222656 C 35.523438 -5.804688 35.070312 -6.320312 34.488281 -6.382812 L 15.703125 -8.429688 C 15.117188 -8.492188 14.707031 -9 14.773438 -9.585938 C 14.835938 -10.167969 15.34375 -10.578125 15.929688 -10.515625 L 33.085938 -8.648438 C 33.671875 -8.582031 34.179688 -8.992188 34.242188 -9.578125 L 35.015625 -16.675781 C 35.082031 -17.257812 34.628906 -17.773438 34.042969 -17.835938 L 16.929688 -19.699219 C 16.34375 -19.761719 15.933594 -20.273438 16 -20.855469 C 16.0625 -21.441406 16.570312 -21.851562 17.15625 -21.785156 L 35.984375 -19.738281 C 36.566406 -19.671875 37.078125 -20.082031 37.140625 -20.667969 L 38.003906 -28.597656 C 38.066406 -29.183594 37.660156 -29.691406 37.074219 -29.757812 L 5.722656 -33.167969 C 5.140625 -33.234375 4.628906 -32.824219 4.566406 -32.238281 L 1.15625 -0.929688 C 1.09375 -0.34375 1.542969 0.167969 2.128906 0.230469 Z M 2.128906 0.230469 "/></g></g></g><g fill="#ffffff" fill-opacity="1"><g transform="translate(286.297706, 193.477392)"><g><path d="M 2.074219 0.324219 L 12.449219 1.9375 C 13.027344 2.03125 13.5625 1.601562 13.652344 1.023438 L 15.164062 -8.6875 C 15.257812 -9.269531 15.785156 -9.652344 16.363281 -9.5625 L 22.589844 -8.59375 C 23.167969 -8.503906 23.554688 -7.976562 23.464844 -7.394531 L 21.945312 2.355469 C 21.855469 2.9375 22.238281 3.464844 22.820312 3.554688 L 33.195312 5.171875 C 33.773438 5.261719 34.308594 4.835938 34.398438 4.253906 L 35.996094 -5.996094 C 36.375 -8.441406 34.871094 -10.503906 32.421875 -10.886719 L 32.050781 -10.945312 C 31.46875 -11.035156 31.082031 -11.5625 31.171875 -12.144531 C 31.265625 -12.722656 31.792969 -13.109375 32.371094 -13.019531 L 32.746094 -12.960938 C 35.195312 -12.578125 37.257812 -14.085938 37.636719 -16.535156 L 38.347656 -21.097656 C 38.957031 -25 36.539062 -28.308594 32.636719 -28.914062 L 7.246094 -32.871094 C 6.664062 -32.960938 6.136719 -32.574219 6.046875 -31.996094 L 1.199219 -0.875 C 1.109375 -0.292969 1.492188 0.234375 2.074219 0.324219 Z M 17.851562 -19.105469 C 17.269531 -19.195312 16.882812 -19.722656 16.976562 -20.304688 C 17.066406 -20.886719 17.59375 -21.269531 18.175781 -21.179688 L 24.398438 -20.210938 C 24.980469 -20.121094 25.363281 -19.59375 25.273438 -19.011719 C 25.183594 -18.429688 24.65625 -18.046875 24.074219 -18.136719 Z M 17.851562 -19.105469 "/></g></g></g><g fill="#ffffff" fill-opacity="1"><g transform="translate(320.891795, 198.91838)"><g><path d="M 2.101562 0.417969 L 12.355469 2.460938 C 12.933594 2.574219 13.476562 2.210938 13.589844 1.636719 L 14.738281 -4.128906 C 14.851562 -4.707031 15.394531 -5.070312 15.972656 -4.957031 C 16.550781 -4.839844 16.902344 -4.257812 16.789062 -3.679688 L 15.648438 2.046875 C 15.535156 2.621094 15.9375 3.171875 16.515625 3.289062 L 26.769531 5.328125 C 27.347656 5.445312 27.890625 5.082031 28.003906 4.503906 L 32.6875 -19.011719 C 33.652344 -23.871094 30.816406 -28.117188 25.957031 -29.085938 L 15.992188 -31.070312 C 11.132812 -32.039062 6.882812 -29.199219 5.917969 -24.339844 L 1.234375 -0.824219 C 1.121094 -0.246094 1.523438 0.304688 2.101562 0.417969 Z M 17.941406 -14.839844 C 17.363281 -14.953125 17 -15.496094 17.117188 -16.074219 L 17.773438 -19.367188 C 17.886719 -19.945312 18.429688 -20.308594 19.007812 -20.191406 C 19.582031 -20.078125 19.945312 -19.535156 19.832031 -18.957031 L 19.175781 -15.664062 C 19.058594 -15.085938 18.515625 -14.722656 17.941406 -14.839844 Z M 17.941406 -14.839844 "/></g></g></g><path stroke-linecap="butt" transform="matrix(1.072111, -0.116943, 0.116943, 1.072111, 102.555804, 193.438595)" fill="none" stroke-linejoin="miter" d="M 8.475811 13.242211 C 5.706703 13.242575 3.66682 12.670292 2.358978 11.532958 C 1.204591 10.52531 0.625848 9.150518 0.626741 7.405374 C 0.624034 5.659836 1.204051 4.283916 2.359982 3.273227 C 3.668056 2.137036 5.704847 1.568562 8.477163 1.572192 C 10.102307 1.570927 11.444638 1.757424 12.508149 2.128475 C 13.571266 2.503126 14.393862 3.011857 14.983135 3.655452 C 15.572016 4.302647 15.965088 5.041433 16.154756 5.874625 L 11.210518 5.874559 C 10.715186 5.004383 9.804343 4.569827 8.477988 4.570892 C 7.341225 4.570776 6.503911 4.898447 5.969647 5.554299 C 5.541109 6.075943 5.327958 6.693951 5.326985 7.40433 C 5.32922 8.118702 5.542453 8.735853 5.970285 9.256176 C 6.506792 9.915877 7.341824 10.243788 8.474986 10.243512 C 9.804941 10.242839 10.716427 9.803022 11.212653 8.928054 L 16.156891 8.92812 C 15.963382 9.766881 15.572491 10.511242 14.984609 11.157602 C 14.396727 11.803962 13.568973 12.311209 12.508156 12.683728 C 11.443739 13.055854 10.100955 13.240946 8.475811 13.242211 Z M 8.475811 13.242211 " stroke="#231f20" stroke-width="1.9" stroke-opacity="1" stroke-miterlimit="4"/><path stroke-linecap="butt" transform="matrix(1.074834, -0.0884874, 0.0884874, 1.074834, 120.821109, 191.448707)" fill="none" stroke-linejoin="miter" d="M 8.477991 13.24398 C 5.705276 13.241037 3.665933 12.673374 2.360851 11.530161 C 1.204497 10.522757 0.623792 9.144803 0.625954 7.396891 C 0.623615 5.659512 1.202168 4.282504 2.361017 3.273087 C 3.66502 2.133882 5.707137 1.564244 8.476539 1.563279 C 11.245941 1.562315 13.284987 2.133588 14.593976 3.273489 C 15.750033 4.284502 16.327425 5.658549 16.329467 7.399538 C 16.327602 9.14384 15.749049 10.520848 14.59381 11.530563 C 13.2859 12.67308 11.247393 13.243015 8.477991 13.24398 Z M 8.474982 10.234547 C 9.612581 10.23371 10.446056 9.909825 10.975704 9.259281 C 11.404408 8.731261 11.618856 8.112917 11.616035 7.396731 C 11.616526 6.684452 11.402045 6.067138 10.976201 5.545087 C 10.444948 4.890791 9.610521 4.564061 8.476829 4.561586 C 7.34284 4.562719 6.505458 4.889917 5.967996 5.547086 C 5.539887 6.067886 5.329048 6.686528 5.328557 7.398807 C 5.328066 8.111086 5.54225 8.732009 5.967796 9.257671 C 6.506566 9.908951 7.340993 10.235681 8.474982 10.234547 Z M 8.474982 10.234547 " stroke="#231f20" stroke-width="1.9" stroke-opacity="1" stroke-miterlimit="4"/><path stroke-linecap="butt" transform="matrix(1.077117, -0.0540194, 0.0540194, 1.077117, 139.371543, 189.867439)" fill="none" stroke-linejoin="miter" d="M 22.561294 13.001052 L 17.857628 13.000883 L 17.8607 5.853048 L 13.654445 13.000427 L 10.147633 12.99863 L 5.954757 5.850702 L 5.951685 12.998537 L 1.251637 12.998549 L 1.251707 1.788794 L 6.836597 1.78964 L 11.907493 9.797582 L 16.969238 1.790089 L 22.561545 1.78768 Z M 22.561294 13.001052 " stroke="#231f20" stroke-width="1.9" stroke-opacity="1" stroke-miterlimit="4"/><path stroke-linecap="butt" transform="matrix(1.078384, -0.0136839, 0.0136839, 1.078384, 165.410355, 188.568854)" fill="none" stroke-linejoin="miter" d="M 22.561307 12.998358 L 17.859512 13.000275 L 17.859688 5.849819 L 13.657609 13.00129 L 10.147595 13.000219 L 5.953111 5.85087 L 5.952935 13.001326 L 1.251186 12.999622 L 1.248555 1.78851 L 6.834145 1.790563 L 11.9052 9.798657 L 16.969417 1.788769 L 22.562297 1.787292 Z M 22.561307 12.998358 " stroke="#231f20" stroke-width="1.9" stroke-opacity="1" stroke-miterlimit="4"/><path stroke-linecap="butt" transform="matrix(1.078288, 0.01986, -0.01986, 1.078288, 191.412707, 188.311276)" fill="none" stroke-linejoin="miter" d="M 7.881671 13.241631 C 5.150191 13.241223 3.223392 12.675352 2.108448 11.540264 C 1.170733 10.586667 0.703375 9.207803 0.702818 7.407361 L 0.704522 1.795857 L 5.406717 1.796195 L 5.405013 7.407699 C 5.404868 8.186569 5.539402 8.803563 5.804993 9.258747 C 6.18645 9.90742 6.877167 10.235226 7.884253 10.234791 C 8.898582 10.234222 9.5954 9.909841 9.967398 9.258159 C 10.234088 8.789549 10.367605 8.171241 10.368017 7.406856 L 10.3661 1.795419 L 15.071916 1.795691 L 15.071346 7.468758 C 15.07117 9.229365 14.60347 10.585602 13.671868 11.537402 C 12.551666 12.673808 10.624015 13.24184 7.881671 13.241631 Z M 7.881671 13.241631 " stroke="#231f20" stroke-width="1.9" stroke-opacity="1" stroke-miterlimit="4"/><path stroke-linecap="butt" transform="matrix(1.077337, 0.0494235, -0.0494235, 1.077337, 208.706621, 188.608742)" fill="none" stroke-linejoin="miter" d="M 17.881053 12.998348 L 12.290135 13.001026 L 5.95214 5.412842 L 5.952204 13.001716 L 1.24941 12.999909 L 1.249962 1.788796 L 6.844664 1.78957 L 13.180668 9.334335 L 13.178977 1.789046 L 17.881771 1.790853 Z M 17.881053 12.998348 " stroke="#231f20" stroke-width="1.9" stroke-opacity="1" stroke-miterlimit="4"/><path stroke-linecap="butt" transform="matrix(1.076084, 0.0717051, -0.0717051, 1.076084, 229.529622, 189.633036)" fill="none" stroke-linejoin="miter" d="M 1.249714 1.789629 L 5.954185 1.78833 L 5.953593 13.001625 L 1.248881 12.99931 Z M 1.249714 1.789629 " stroke="#231f20" stroke-width="1.9" stroke-opacity="1" stroke-miterlimit="4"/><path stroke-linecap="butt" transform="matrix(1.07471, 0.0899785, -0.0899785, 1.07471, 237.458881, 190.129778)" fill="none" stroke-linejoin="miter" d="M 9.562765 12.999518 L 4.859565 13.000738 L 4.8581 4.561087 L 0.467424 4.561585 L 0.467853 1.788273 L 13.952708 1.789665 L 13.952278 4.562978 L 9.561602 4.563476 Z M 9.562765 12.999518 " stroke="#231f20" stroke-width="1.9" stroke-opacity="1" stroke-miterlimit="4"/><path stroke-linecap="butt" transform="matrix(1.072147, 0.116621, -0.116621, 1.072147, 253.216483, 191.433386)" fill="none" stroke-linejoin="miter" d="M 10.936524 13.001604 L 6.23268 12.999538 L 6.234152 7.687313 L 0.116378 1.787371 L 5.326606 1.789006 L 8.587561 5.139631 L 11.8372 1.787646 L 17.047428 1.789282 L 10.937604 7.685778 Z M 10.936524 13.001604 " stroke="#231f20" stroke-width="1.9" stroke-opacity="1" stroke-miterlimit="4"/><g fill="#ffffff" fill-opacity="1"><g transform="translate(104.076068, 207.376043)"><g><path d="M 9.125 -0.71875 C 6.144531 -0.394531 3.890625 -0.769531 2.359375 -1.84375 C 1.003906 -2.789062 0.222656 -4.203125 0.015625 -6.078125 C -0.179688 -7.953125 0.273438 -9.492188 1.390625 -10.703125 C 2.648438 -12.066406 4.769531 -12.910156 7.75 -13.234375 C 9.488281 -13.429688 10.945312 -13.394531 12.125 -13.125 C 13.3125 -12.851562 14.257812 -12.40625 14.96875 -11.78125 C 15.675781 -11.15625 16.179688 -10.40625 16.484375 -9.53125 L 11.1875 -8.953125 C 10.550781 -9.828125 9.523438 -10.1875 8.109375 -10.03125 C 6.878906 -9.90625 6.019531 -9.457031 5.53125 -8.6875 C 5.132812 -8.070312 4.976562 -7.382812 5.0625 -6.625 C 5.144531 -5.851562 5.445312 -5.210938 5.96875 -4.703125 C 6.601562 -4.066406 7.535156 -3.8125 8.765625 -3.9375 C 10.179688 -4.09375 11.109375 -4.671875 11.546875 -5.671875 L 16.84375 -6.25 C 16.738281 -5.332031 16.40625 -4.492188 15.84375 -3.734375 C 15.28125 -2.972656 14.453125 -2.328125 13.359375 -1.796875 C 12.273438 -1.273438 10.863281 -0.914062 9.125 -0.71875 Z M 9.125 -0.71875 "/></g></g></g><g fill="#ffffff" fill-opacity="1"><g transform="translate(121.971445, 205.421552)"><g><path d="M 9.125 -0.484375 C 6.144531 -0.234375 3.90625 -0.664062 2.40625 -1.78125 C 1.070312 -2.769531 0.328125 -4.207031 0.171875 -6.09375 C 0.015625 -7.957031 0.515625 -9.476562 1.671875 -10.65625 C 2.972656 -11.988281 5.113281 -12.78125 8.09375 -13.03125 C 11.070312 -13.28125 13.316406 -12.851562 14.828125 -11.75 C 16.148438 -10.757812 16.890625 -9.332031 17.046875 -7.46875 C 17.203125 -5.582031 16.707031 -4.050781 15.5625 -2.875 C 14.25 -1.53125 12.101562 -0.734375 9.125 -0.484375 Z M 8.859375 -3.71875 C 10.078125 -3.820312 10.941406 -4.242188 11.453125 -4.984375 C 11.867188 -5.597656 12.046875 -6.289062 11.984375 -7.0625 C 11.921875 -7.8125 11.632812 -8.445312 11.125 -8.96875 C 10.5 -9.632812 9.578125 -9.914062 8.359375 -9.8125 C 7.128906 -9.707031 6.265625 -9.28125 5.765625 -8.53125 C 5.347656 -7.925781 5.171875 -7.25 5.234375 -6.5 C 5.296875 -5.726562 5.582031 -5.078125 6.09375 -4.546875 C 6.707031 -3.890625 7.628906 -3.613281 8.859375 -3.71875 Z M 8.859375 -3.71875 "/></g></g></g><g fill="#ffffff" fill-opacity="1"><g transform="translate(140.073794, 203.869957)"><g><path d="M 24.296875 -1.21875 L 19.21875 -0.96875 L 18.828125 -8.65625 L 14.703125 -0.734375 L 10.921875 -0.546875 L 6.015625 -8.015625 L 6.40625 -0.328125 L 1.34375 -0.0625 L 0.734375 -12.140625 L 6.75 -12.453125 L 12.65625 -4.09375 L 17.671875 -13 L 23.6875 -13.296875 Z M 24.296875 -1.21875 "/></g></g></g><g fill="#ffffff" fill-opacity="1"><g transform="translate(165.588246, 202.587842)"><g><path d="M 24.328125 -0.3125 L 19.25 -0.25 L 19.15625 -7.953125 L 14.71875 -0.1875 L 10.9375 -0.140625 L 6.328125 -7.78125 L 6.421875 -0.078125 L 1.34375 -0.015625 L 1.1875 -12.109375 L 7.21875 -12.1875 L 12.796875 -3.609375 L 18.140625 -12.328125 L 24.171875 -12.40625 Z M 24.328125 -0.3125 "/></g></g></g><g fill="#ffffff" fill-opacity="1"><g transform="translate(191.154528, 202.329016)"><g><path d="M 8.5 0.421875 C 5.550781 0.367188 3.488281 -0.28125 2.3125 -1.53125 C 1.320312 -2.570312 0.84375 -4.066406 0.875 -6.015625 L 0.984375 -12.0625 L 6.046875 -11.96875 L 5.9375 -5.921875 C 5.925781 -5.078125 6.0625 -4.410156 6.34375 -3.921875 C 6.738281 -3.210938 7.476562 -2.847656 8.5625 -2.828125 C 9.65625 -2.804688 10.410156 -3.140625 10.828125 -3.828125 C 11.117188 -4.335938 11.269531 -5.003906 11.28125 -5.828125 L 11.390625 -11.875 L 16.46875 -11.78125 L 16.359375 -5.671875 C 16.328125 -3.765625 15.796875 -2.3125 14.765625 -1.3125 C 13.535156 -0.101562 11.445312 0.472656 8.5 0.421875 Z M 8.5 0.421875 "/></g></g></g><g fill="#ffffff" fill-opacity="1"><g transform="translate(208.064115, 202.614129)"><g><path d="M 19.265625 0.890625 L 13.234375 0.609375 L 6.796875 -7.859375 L 6.421875 0.296875 L 1.34375 0.0625 L 1.890625 -12.015625 L 7.921875 -11.734375 L 14.375 -3.296875 L 14.734375 -11.421875 L 19.8125 -11.1875 Z M 19.265625 0.890625 "/></g></g></g><g fill="#ffffff" fill-opacity="1"><g transform="translate(228.597455, 203.622129)"><g><path d="M 6.40625 0.421875 L 1.34375 0.09375 L 2.140625 -11.96875 L 7.203125 -11.640625 Z M 6.40625 0.421875 "/></g></g></g><g fill="#ffffff" fill-opacity="1"><g transform="translate(236.28916, 204.101013)"><g><path d="M 10.28125 0.859375 L 5.21875 0.4375 L 5.984375 -8.625 L 1.265625 -9.015625 L 1.515625 -12 L 16.015625 -10.796875 L 15.765625 -7.8125 L 11.046875 -8.203125 Z M 10.28125 0.859375 "/></g></g></g><g fill="#ffffff" fill-opacity="1"><g transform="translate(251.700412, 205.371291)"><g><path d="M 11.734375 1.28125 L 6.671875 0.71875 L 7.296875 -4.984375 L 1.4375 -12 L 7.03125 -11.390625 L 10.125 -7.421875 L 14 -10.640625 L 19.578125 -10.03125 L 12.359375 -4.421875 Z M 11.734375 1.28125 "/></g></g></g></svg>